<svg width="300" height="300" viewBox="0 0 300 300" fill="none" xmlns="http://www.w3.org/2000/svg">
<circle cx="160.64" cy="227.353" r="44.3529" fill="#F4F4F0" stroke="#192222" stroke-width="1.04167" stroke-linejoin="round"/>
<rect x="91.0005" y="48" width="93" height="51" rx="0.518388" fill="#192222"/>
<rect x="44.0005" y="103" width="211" height="76" rx="0.518388" fill="#FFEB36"/>
<path fill-rule="evenodd" clip-rule="evenodd" d="M102.02 221.068L113 193L84.9362 203.984L98.3576 207.642L102.02 221.068ZM49.0001 214.368H89.544V233.544H49.0001V214.368Z" fill="white"/>
<path d="M113 193L112.81 192.515C113.003 192.44 113.222 192.485 113.368 192.632C113.515 192.778 113.56 192.997 113.485 193.19L113 193ZM102.02 221.068L102.505 221.258C102.424 221.467 102.217 221.6 101.993 221.588C101.768 221.576 101.577 221.422 101.518 221.205L102.02 221.068ZM84.9362 203.984L84.7992 204.486C84.5825 204.427 84.4281 204.236 84.4161 204.012C84.4041 203.787 84.5372 203.581 84.7464 203.499L84.9362 203.984ZM98.3576 207.642L98.4946 207.14C98.6725 207.188 98.8116 207.327 98.8601 207.505L98.3576 207.642ZM89.544 214.368V213.847C89.8316 213.847 90.0648 214.08 90.0648 214.368H89.544ZM49.0001 214.368H48.4792C48.4792 214.08 48.7124 213.847 49.0001 213.847V214.368ZM89.544 233.544H90.0648C90.0648 233.831 89.8316 234.064 89.544 234.064V233.544ZM49.0001 233.544V234.064C48.7124 234.064 48.4792 233.831 48.4792 233.544H49.0001ZM113 193L113.485 193.19L102.505 221.258L102.02 221.068L101.535 220.878L112.515 192.81L113 193ZM84.9362 203.984L84.7464 203.499L112.81 192.515L113 193L113.19 193.485L85.126 204.469L84.9362 203.984ZM98.3576 207.642L98.2207 208.145L84.7992 204.486L84.9362 203.984L85.0731 203.481L98.4946 207.14L98.3576 207.642ZM102.02 221.068L101.518 221.205L97.8552 207.779L98.3576 207.642L98.8601 207.505L102.523 220.931L102.02 221.068ZM89.544 214.368V214.888H49.0001V214.368V213.847H89.544V214.368ZM89.544 233.544H89.0232V214.368H89.544H90.0648V233.544H89.544ZM49.0001 233.544V233.023H89.544V233.544V234.064H49.0001V233.544ZM49.0001 214.368H49.5209V233.544H49.0001H48.4792V214.368H49.0001Z" fill="#192222"/>
<path fill-rule="evenodd" clip-rule="evenodd" d="M201.98 40.5786L191 68.6467L219.064 57.6628L205.642 54.0044L201.98 40.5786ZM266.456 47H214.456V28H266.456V47Z" fill="#F4F4F0"/>
<path d="M191 68.6467L191.19 69.1317C190.997 69.2072 190.778 69.1614 190.632 69.015C190.485 68.8687 190.44 68.6497 190.515 68.457L191 68.6467ZM201.98 40.5786L201.495 40.3889C201.576 40.1797 201.783 40.0465 202.007 40.0585C202.232 40.0705 202.423 40.2248 202.482 40.4415L201.98 40.5786ZM219.064 57.6628L219.201 57.1603C219.417 57.2194 219.572 57.4107 219.584 57.635C219.596 57.8592 219.463 58.0659 219.254 58.1478L219.064 57.6628ZM205.642 54.0044L205.505 54.5069C205.327 54.4584 205.188 54.3194 205.14 54.1414L205.642 54.0044ZM214.456 47V47.5208C214.168 47.5208 213.935 47.2876 213.935 47H214.456ZM266.456 47H266.977C266.977 47.2876 266.744 47.5208 266.456 47.5208V47ZM214.456 28H213.935C213.935 27.7123 214.168 27.4791 214.456 27.4791V28ZM266.456 28V27.4791C266.744 27.4791 266.977 27.7123 266.977 28H266.456ZM191 68.6467L190.515 68.457L201.495 40.3889L201.98 40.5786L202.465 40.7683L191.485 68.8365L191 68.6467ZM219.064 57.6628L219.254 58.1478L191.19 69.1317L191 68.6467L190.81 68.1617L218.874 57.1778L219.064 57.6628ZM205.642 54.0044L205.779 53.5019L219.201 57.1603L219.064 57.6628L218.927 58.1653L205.505 54.5069L205.642 54.0044ZM201.98 40.5786L202.482 40.4415L206.145 53.8673L205.642 54.0044L205.14 54.1414L201.477 40.7157L201.98 40.5786ZM214.456 47V46.4791H266.456V47V47.5208H214.456V47ZM214.456 28H214.977V47H214.456H213.935V28H214.456ZM266.456 28V28.5208H214.456V28V27.4791H266.456V28ZM266.456 47H265.935V28H266.456H266.977V47H266.456Z" fill="#192222"/>
<path fill-rule="evenodd" clip-rule="evenodd" d="M202.98 268.774L192 240.706L220.064 251.69L206.642 255.348L202.98 268.774ZM277.456 261.706H215.456V281.706H277.456V261.706Z" fill="#F4F4F0"/>
<path d="M192 240.706L192.19 240.221C191.997 240.146 191.778 240.191 191.632 240.338C191.485 240.484 191.44 240.703 191.515 240.896L192 240.706ZM202.98 268.774L202.495 268.964C202.576 269.173 202.783 269.306 203.007 269.294C203.232 269.282 203.423 269.128 203.482 268.911L202.98 268.774ZM220.064 251.69L220.201 252.192C220.417 252.133 220.572 251.942 220.584 251.718C220.596 251.494 220.463 251.287 220.254 251.205L220.064 251.69ZM206.642 255.348L206.505 254.846C206.327 254.894 206.188 255.033 206.14 255.211L206.642 255.348ZM215.456 261.706V261.185C215.168 261.185 214.935 261.418 214.935 261.706H215.456ZM277.456 261.706H277.977C277.977 261.418 277.744 261.185 277.456 261.185V261.706ZM215.456 281.706H214.935C214.935 281.994 215.168 282.227 215.456 282.227V281.706ZM277.456 281.706V282.227C277.744 282.227 277.977 281.994 277.977 281.706H277.456ZM192 240.706L191.515 240.896L202.495 268.964L202.98 268.774L203.465 268.584L192.485 240.516L192 240.706ZM220.064 251.69L220.254 251.205L192.19 240.221L192 240.706L191.81 241.191L219.874 252.175L220.064 251.69ZM206.642 255.348L206.779 255.851L220.201 252.192L220.064 251.69L219.927 251.187L206.505 254.846L206.642 255.348ZM202.98 268.774L203.482 268.911L207.145 255.485L206.642 255.348L206.14 255.211L202.477 268.637L202.98 268.774ZM215.456 261.706V262.227H277.456V261.706V261.185H215.456V261.706ZM215.456 281.706H215.977V261.706H215.456H214.935V281.706H215.456ZM277.456 281.706V281.185H215.456V281.706V282.227H277.456V281.706ZM277.456 261.706H276.935V281.706H277.456H277.977V261.706H277.456Z" fill="#192222"/>
</svg>
