<svg width="1344" height="462" viewBox="0 0 1344 462" fill="none" xmlns="http://www.w3.org/2000/svg">
<path d="M0 40C0 17.9086 17.9086 0 40 0H1304C1326.09 0 1344 17.9086 1344 40V422C1344 444.091 1326.09 462 1304 462H0V40Z" fill="#FFEB36"/>
<path d="M52.5 245H83.82V362.9H110.82V389H52.5V245ZM113.282 312.14C113.282 297.38 116.282 286.7 122.282 280.1C128.282 273.5 137.162 270.2 148.922 270.2C160.682 270.2 169.562 273.56 175.562 280.28C181.562 286.88 184.562 297.5 184.562 312.14V338.78H144.242V356.6C144.242 360.08 144.542 362.48 145.142 363.8C145.742 365 147.002 365.6 148.922 365.6C150.842 365.6 152.102 364.94 152.702 363.62C153.302 362.3 153.602 359.96 153.602 356.6V345.98H184.562V348.86C184.562 363.5 181.562 374.18 175.562 380.9C169.562 387.5 160.682 390.8 148.922 390.8C137.162 390.8 128.282 387.5 122.282 380.9C116.282 374.3 113.282 363.62 113.282 348.86V312.14ZM153.602 317V304.4C153.602 301.04 153.302 298.7 152.702 297.38C152.102 296.06 150.842 295.4 148.922 295.4C147.002 295.4 145.742 296.06 145.142 297.38C144.542 298.58 144.242 300.92 144.242 304.4V317H153.602ZM245.535 298.1H228.075V350.66C228.075 355.82 228.855 359.18 230.415 360.74C232.095 362.18 234.675 362.9 238.155 362.9H245.535V389H224.475C217.515 389 212.115 387.92 208.275 385.76C204.435 383.48 201.735 380.12 200.175 375.68C198.615 371.12 197.835 365.12 197.835 357.68V298.1H187.575V272C192.375 270.68 195.555 267.56 197.115 262.64C198.675 257.72 199.395 251.84 199.275 245H229.695C229.695 261.08 225.555 270.08 217.275 272H245.535V298.1ZM268.932 243.2L261.732 288.2H249.132L254.532 243.2H268.932ZM320.706 323.84C326.946 328.16 331.446 332.6 334.206 337.16C337.086 341.72 338.526 347.72 338.526 355.16C338.526 366.2 335.526 374.9 329.526 381.26C323.646 387.62 314.586 390.8 302.346 390.8C291.906 390.8 283.386 388.22 276.786 383.06C270.306 377.78 267.066 369.26 267.066 357.5V347.42H298.206V356.78C298.206 360.02 298.446 362.3 298.926 363.62C299.526 364.94 300.786 365.6 302.706 365.6C304.626 365.6 305.886 364.94 306.486 363.62C307.206 362.3 307.566 360.02 307.566 356.78C307.566 354.86 307.386 353.3 307.026 352.1C306.666 350.9 305.706 349.52 304.146 347.96C302.586 346.4 300.186 344.48 296.946 342.2L284.886 333.92C279.006 329.84 274.506 325.58 271.386 321.14C268.386 316.7 266.886 310.88 266.886 303.68C266.886 293.72 269.886 285.68 275.886 279.56C281.886 273.32 290.946 270.2 303.066 270.2C313.986 270.2 322.566 272.84 328.806 278.12C335.046 283.28 338.166 291.08 338.166 301.52V309.8H307.206V302.24C307.206 299.96 306.846 298.28 306.126 297.2C305.526 296 304.326 295.4 302.526 295.4C300.726 295.4 299.466 296 298.746 297.2C298.146 298.28 297.846 299.96 297.846 302.24C297.846 304.28 298.206 306.02 298.926 307.46C299.766 308.9 301.386 310.46 303.786 312.14L320.706 323.84ZM419.384 304.4C419.384 301.04 419.084 298.7 418.484 297.38C417.884 296.06 416.624 295.4 414.704 295.4C412.784 295.4 411.524 296.06 410.924 297.38C410.324 298.58 410.024 300.92 410.024 304.4V356.6C410.024 360.08 410.324 362.48 410.924 363.8C411.524 365 412.784 365.6 414.704 365.6C416.624 365.6 417.884 364.94 418.484 363.62C419.084 362.3 419.384 359.96 419.384 356.6V343.1H450.344V348.86C450.344 363.5 447.344 374.18 441.344 380.9C435.344 387.5 426.464 390.8 414.704 390.8C402.944 390.8 394.064 387.5 388.064 380.9C382.064 374.3 379.064 363.62 379.064 348.86V312.14C379.064 297.38 382.064 286.7 388.064 280.1C394.064 273.5 402.944 270.2 414.704 270.2C426.464 270.2 435.344 273.56 441.344 280.28C447.344 286.88 450.344 297.5 450.344 312.14V317.9H419.384V304.4ZM486.325 285.14C488.005 281.18 490.525 277.7 493.885 274.7C497.365 271.7 501.685 270.2 506.845 270.2C514.525 270.2 519.565 272.96 521.965 278.48C524.485 284 525.745 291.92 525.745 302.24V389H495.685V304.4C495.685 301.04 495.385 298.7 494.785 297.38C494.185 296.06 492.925 295.4 491.005 295.4C489.085 295.4 487.825 296.06 487.225 297.38C486.625 298.7 486.325 301.04 486.325 304.4V389H456.085V245H486.325V285.14ZM573.205 374.24C569.005 385.28 562.045 390.8 552.325 390.8C545.605 390.8 540.265 388.34 536.305 383.42C532.345 378.38 530.365 370.88 530.365 360.92C530.365 351.44 532.645 343.7 537.205 337.7C541.885 331.7 547.465 326.66 553.945 322.58L559.165 319.34C563.845 316.46 567.205 314 569.245 311.96C571.285 309.92 572.305 307.28 572.305 304.04V301.7C572.305 299.66 571.945 298.1 571.225 297.02C570.505 295.94 569.245 295.4 567.445 295.4C565.645 295.4 564.385 295.94 563.665 297.02C562.945 298.1 562.585 299.66 562.585 301.7V311.78H532.345V308.54C532.345 295.1 535.165 285.38 540.805 279.38C546.565 273.26 555.505 270.2 567.625 270.2C579.745 270.2 588.565 273.26 594.085 279.38C599.725 285.5 602.545 295.22 602.545 308.54V389H573.205V374.24ZM561.145 354.62C561.145 357.38 561.625 359.42 562.585 360.74C563.545 361.94 564.805 362.54 566.365 362.54C568.645 362.54 570.205 361.22 571.045 358.58C571.885 355.94 572.305 351.44 572.305 345.08V335.36C572.065 336.2 571.585 337.04 570.865 337.88C570.265 338.72 569.425 339.74 568.345 340.94L565.645 343.82C562.645 347.06 561.145 350.66 561.145 354.62ZM664.245 298.1H646.785V350.66C646.785 355.82 647.565 359.18 649.125 360.74C650.805 362.18 653.385 362.9 656.865 362.9H664.245V389H643.185C636.225 389 630.825 387.92 626.985 385.76C623.145 383.48 620.445 380.12 618.885 375.68C617.325 371.12 616.545 365.12 616.545 357.68V298.1H606.285V272C611.085 270.68 614.265 267.56 615.825 262.64C617.385 257.72 618.105 251.84 617.985 245H648.405C648.405 261.08 644.265 270.08 635.985 272H664.245V298.1Z" fill="#192222"/>
<rect x="1287.25" y="270.75" width="118.5" height="118.5" rx="59.25" transform="rotate(90 1287.25 270.75)" stroke="#192222" stroke-width="1.5"/>
<path d="M1198 330L1258 330" stroke="#192222" stroke-width="1.5"/>
<path d="M1228 300L1258 330L1228 360" stroke="#192222" stroke-width="1.5"/>
</svg>
