<svg width="784" height="379" viewBox="0 0 784 379" fill="none" xmlns="http://www.w3.org/2000/svg">
<path d="M61.3016 61.0952C60.5592 60.6648 59.9818 60.0637 59.5693 59.2917C59.1569 58.5197 58.9507 57.6282 58.9507 56.6171C58.9507 55.606 59.2566 54.3353 59.8684 53.4199C60.4801 52.5044 61.3531 51.8008 62.4873 51.3089C63.6216 50.817 64.9517 50.5711 66.4777 50.5711C68.0037 50.5711 67.7494 50.6189 68.1893 50.7145V50.2841C68.1893 49.2457 67.9968 48.4703 67.6119 47.9579C67.227 47.4456 66.6427 47.1894 65.859 47.1894C64.5942 47.1894 63.7831 47.8521 63.4256 49.1774C63.3157 49.56 63.0888 49.7239 62.7451 49.6693L59.9405 49.1774C59.7343 49.1364 59.5934 49.0476 59.5178 48.911C59.4422 48.7743 59.4319 48.5899 59.4869 48.3576C59.8443 46.9639 60.6039 45.8811 61.7656 45.1091C62.9273 44.3372 64.388 43.9512 66.1477 43.9512C67.9075 43.9512 69.8288 44.5114 70.9217 45.6318C72.0147 46.7522 72.5612 48.3849 72.5612 50.5301V60.8391C72.5612 60.9893 72.5096 61.1157 72.4065 61.2182C72.3034 61.3207 72.1762 61.3719 72.025 61.3719H69.3441C69.0142 61.3719 68.808 61.1943 68.7255 60.8391L68.313 58.9125H68.1481C67.7769 59.8143 67.2235 60.5111 66.488 61.003C65.7525 61.4949 64.8829 61.7408 63.8793 61.7408C62.8757 61.7408 62.044 61.5256 61.3016 61.0952ZM64.0134 57.857C64.3914 58.2874 64.9035 58.5026 65.5497 58.5026C66.1959 58.5026 67.0551 58.1235 67.5088 57.3651C67.9625 56.6068 68.1893 55.5172 68.1893 54.0962V53.01C67.8044 52.9416 67.44 52.9075 67.0963 52.9075C65.969 52.9075 65.0788 53.1978 64.4258 53.7785C63.7728 54.3592 63.4463 55.1414 63.4463 56.1252C63.4463 57.109 63.6353 57.4266 64.0134 57.857ZM70.4165 63.7288C70.6089 63.5785 70.8598 63.5581 71.1692 63.6674C71.4785 63.7767 71.8875 64.0294 72.3962 64.4257C75.8882 67.213 79.8957 69.2625 84.4188 70.5742C88.9418 71.8859 93.6299 72.5417 98.4829 72.5417C103.336 72.5417 106.165 72.1489 109.773 71.3632C113.382 70.5776 116.445 69.5289 118.961 68.2172C119.483 67.944 119.888 67.7732 120.177 67.7049C120.466 67.6366 120.713 67.7049 120.92 67.9098C121.071 68.0874 121.146 68.2651 121.146 68.4427C121.146 68.9209 120.686 69.5631 119.765 70.3692C117.139 72.6237 113.867 74.376 109.949 75.6262C106.031 76.8764 101.906 77.5015 97.5756 77.5015C93.245 77.5015 90.8837 77.1018 87.6461 76.3025C84.4085 75.5032 81.3736 74.2701 78.5415 72.6032C75.7094 70.9363 73.2692 68.8458 71.2207 66.3317C70.7121 65.7032 70.389 65.1772 70.2515 64.7536C70.1003 64.2754 70.1553 63.9338 70.4165 63.7288ZM75.1183 44.853C75.1183 44.7027 75.1698 44.5763 75.2729 44.4738C75.3761 44.3713 75.5032 44.3201 75.6544 44.3201H78.3765C78.5278 44.3201 78.6549 44.3679 78.758 44.4635C78.8612 44.5592 78.9265 44.689 78.954 44.853L79.3664 46.8615H79.5314C79.9026 45.9187 80.4353 45.198 81.1296 44.6992C81.8238 44.2005 82.6453 43.9512 83.5939 43.9512C84.5425 43.9512 85.4877 44.2176 86.2232 44.7505C86.9587 45.2833 87.5258 46.0417 87.9245 47.0254H88.0895C88.6944 45.987 89.3749 45.215 90.131 44.7095C90.8872 44.2039 91.7327 43.9512 92.6675 43.9512C93.6024 43.9512 94.5682 44.2244 95.3175 44.771C96.0667 45.3175 96.6407 46.0963 97.0394 47.1074C97.4381 48.1185 97.6374 49.314 97.6374 50.694V60.8391C97.6374 60.9893 97.5859 61.1157 97.4828 61.2182C97.3797 61.3207 97.2525 61.3719 97.1013 61.3719H93.8017C93.6505 61.3719 93.5234 61.3207 93.4202 61.2182C93.3171 61.1157 93.2656 60.9893 93.2656 60.8391V51.0219C93.2656 50.0245 93.0731 49.2594 92.6882 48.7265C92.3032 48.1936 91.7464 47.9272 91.0178 47.9272C90.2891 47.9272 89.6121 48.2415 89.1927 48.87C88.7734 49.4985 88.5638 50.4071 88.5638 51.5958V60.8391C88.5638 60.9893 88.5122 61.1157 88.4091 61.2182C88.306 61.3207 88.1788 61.3719 88.0276 61.3719H84.7281C84.5769 61.3719 84.4497 61.3207 84.3466 61.2182C84.2435 61.1157 84.1919 60.9893 84.1919 60.8391V51.0219C84.1919 50.0245 83.9995 49.2594 83.6145 48.7265C83.2296 48.1936 82.6728 47.9272 81.9441 47.9272C81.2155 47.9272 80.5384 48.2415 80.1191 48.87C79.6998 49.4985 79.4901 50.4071 79.4901 51.5958V60.8391C79.4901 60.9893 79.4386 61.1157 79.3355 61.2182C79.2324 61.3207 79.1052 61.3719 78.954 61.3719H75.6544C75.5032 61.3719 75.3761 61.3207 75.2729 61.2182C75.1698 61.1157 75.1183 60.9893 75.1183 60.8391V44.853ZM100.7 53.4199C101.312 52.5044 102.185 51.8008 103.319 51.3089C104.453 50.817 105.783 50.5711 107.309 50.5711C108.835 50.5711 108.581 50.6189 109.021 50.7145V50.2841C109.021 49.2457 108.828 48.4703 108.443 47.9579C108.058 47.4456 107.474 47.1894 106.69 47.1894C105.426 47.1894 104.615 47.8521 104.257 49.1774C104.147 49.56 103.92 49.7239 103.577 49.6693L100.772 49.1774C100.566 49.1364 100.425 49.0476 100.349 48.911C100.274 48.7743 100.263 48.5899 100.318 48.3576C100.676 46.9639 101.435 45.8811 102.597 45.1091C103.759 44.3372 105.219 43.9512 106.979 43.9512C108.739 43.9512 110.66 44.5114 111.753 45.6318C112.846 46.7522 113.393 48.3849 113.393 50.5301V60.8391C113.393 60.9893 113.341 61.1157 113.238 61.2182C113.135 61.3207 113.008 61.3719 112.856 61.3719H110.176C109.846 61.3719 109.639 61.1943 109.557 60.8391L109.144 58.9125H108.979C108.608 59.8143 108.055 60.5111 107.319 61.003C106.584 61.4949 105.714 61.7408 104.711 61.7408C103.707 61.7408 102.875 61.5256 102.133 61.0952C101.391 60.6648 100.813 60.0637 100.401 59.2917C99.9883 58.5197 99.7821 57.6282 99.7821 56.6171C99.7821 55.606 100.088 54.3353 100.7 53.4199ZM104.845 57.857C105.223 58.2874 105.735 58.5026 106.381 58.5026C107.027 58.5026 107.887 58.1235 108.34 57.3651C108.794 56.6068 109.021 55.5172 109.021 54.0962V53.01C108.636 52.9416 108.271 52.9075 107.928 52.9075C106.8 52.9075 105.91 53.1978 105.257 53.7785C104.604 54.3592 104.278 55.1414 104.278 56.1252C104.278 57.109 104.467 57.4266 104.845 57.857ZM115.62 58.3592C115.62 58.0586 115.702 57.799 115.867 57.5803L122.92 47.7632H116.321C116.17 47.7632 116.042 47.712 115.939 47.6095C115.836 47.5071 115.785 47.3807 115.785 47.2304V44.853C115.785 44.7027 115.836 44.5763 115.939 44.4738C116.042 44.3713 116.17 44.3201 116.321 44.3201H127.168C127.319 44.3201 127.446 44.3713 127.55 44.4738C127.653 44.5763 127.704 44.7027 127.704 44.853V47.3328C127.704 47.6334 127.622 47.893 127.457 48.1117L121.064 56.8425C121.449 56.7742 121.841 56.7401 122.239 56.7401C123.229 56.7401 124.14 56.8254 124.972 56.9962C125.804 57.167 126.666 57.4437 127.56 57.8263C127.876 57.9629 128.034 58.1952 128.034 58.5231V60.88C128.034 61.0987 127.965 61.2455 127.828 61.3207C127.69 61.3958 127.519 61.3924 127.312 61.3104C126.281 60.9279 125.37 60.658 124.58 60.5009C123.789 60.3438 122.927 60.2652 121.992 60.2652C121.057 60.2652 120.167 60.3472 119.28 60.5111C118.393 60.6751 117.414 60.9415 116.342 61.3104C116.135 61.3787 115.963 61.3753 115.826 61.3002C115.688 61.225 115.62 61.085 115.62 60.88V58.3592ZM116.238 64.7536C116.527 64.4803 116.96 64.1866 117.538 63.8723C119.105 63.0525 120.761 62.6426 122.507 62.6426C124.253 62.6426 124.291 62.7656 125.178 63.0115C126.065 63.2575 126.639 63.5717 126.9 63.9543C127.175 64.3505 127.278 65.0064 127.209 65.9218C127.141 66.8373 126.955 67.7117 126.652 68.5452C126.103 70.1574 125.147 71.5511 123.786 72.7261C123.03 73.423 122.452 73.7714 122.054 73.7714C121.655 73.7714 121.765 73.7099 121.641 73.5869C121.449 73.4093 121.38 73.1907 121.435 72.9311C121.49 72.6715 121.655 72.3162 121.93 71.8654C122.645 70.745 123.212 69.5904 123.631 68.4017C124.051 67.213 124.137 66.4342 123.889 66.0653C123.724 65.833 123.312 65.6725 122.652 65.5836C121.992 65.4948 121.215 65.4812 120.322 65.5427C119.428 65.6041 118.569 65.7237 117.744 65.9013C117.235 65.997 116.843 66.0277 116.568 65.9935C116.293 65.9594 116.108 65.833 116.012 65.6144C115.874 65.3138 115.95 65.0269 116.238 64.7536ZM129.911 48.3064C130.557 46.9469 131.447 45.8811 132.581 45.1091C133.715 44.3372 134.977 43.9512 136.365 43.9512C137.754 43.9512 139.036 44.3372 140.17 45.1091C141.304 45.8811 142.198 46.9469 142.851 48.3064C143.504 49.6659 143.831 51.1791 143.831 52.846C143.831 54.5129 143.504 56.0261 142.851 57.3856C142.198 58.7451 141.304 59.8109 140.17 60.5829C139.036 61.3548 137.768 61.7408 136.365 61.7408C134.963 61.7408 133.715 61.3548 132.581 60.5829C131.447 59.8109 130.557 58.7451 129.911 57.3856C129.265 56.0261 128.942 54.5129 128.942 52.846C128.942 51.1791 129.265 49.6659 129.911 48.3064ZM134.221 56.8528C134.716 57.7887 135.431 58.2567 136.365 58.2567C137.3 58.2567 138.022 57.7887 138.531 56.8528C139.039 55.9168 139.294 54.5812 139.294 52.846C139.294 51.1108 139.039 49.7752 138.531 48.8392C138.022 47.9033 137.3 47.4353 136.365 47.4353C135.431 47.4353 134.716 47.9033 134.221 48.8392C133.726 49.7752 133.478 51.1108 133.478 52.846C133.478 54.5812 133.726 55.9168 134.221 56.8528ZM146.058 44.853C146.058 44.7027 146.109 44.5763 146.212 44.4738C146.315 44.3713 146.443 44.3201 146.594 44.3201H149.316C149.467 44.3201 149.594 44.3679 149.698 44.4635C149.801 44.5592 149.866 44.689 149.893 44.853L150.306 46.8615H150.471C150.842 45.9324 151.388 45.215 152.11 44.7095C152.832 44.2039 153.681 43.9512 154.657 43.9512C155.633 43.9512 156.606 44.2244 157.369 44.771C158.132 45.3175 158.72 46.0963 159.132 47.1074C159.544 48.1185 159.751 49.314 159.751 50.694V60.8391C159.751 60.9893 159.699 61.1157 159.596 61.2182C159.493 61.3207 159.366 61.3719 159.215 61.3719H155.915C155.764 61.3719 155.637 61.3207 155.534 61.2182C155.43 61.1157 155.379 60.9893 155.379 60.8391V51.0219C155.379 50.0245 155.173 49.2594 154.76 48.7265C154.348 48.1936 153.763 47.9272 153.007 47.9272C152.251 47.9272 151.529 48.2415 151.089 48.87C150.65 49.4985 150.43 50.4071 150.43 51.5958V60.8391C150.43 60.9893 150.378 61.1157 150.275 61.2182C150.172 61.3207 150.045 61.3719 149.893 61.3719H146.594C146.443 61.3719 146.315 61.3207 146.212 61.2182C146.109 61.1157 146.058 60.9893 146.058 60.8391V44.853Z" fill="white"/>
<path d="M322.586 54.1329L319.557 51.1063V59.6679H322.586V54.1329ZM310.471 45.0138H317.844L314.83 42.0016L314.815 41.9872H310.943C312.229 41.879 313.423 41.2767 314.273 40.307C315.124 39.3373 315.565 38.0758 315.504 36.7877C315.442 35.4996 314.884 34.2855 313.945 33.4006C313.007 32.5156 311.761 32.0289 310.471 32.0428V42.0051L302.182 33.7508C301.265 34.226 300.399 34.7961 299.601 35.4517L307.439 43.2558V60.3968L313.5 66.4464V62.1692L310.471 59.1426V45.0138Z" fill="white"/>
<path d="M313.499 45.03L313.485 59.6447H316.51L316.524 48.0743L313.499 45.03ZM323.887 51.1009L320.862 48.078H316.528L319.553 51.1009H323.887ZM304.417 57.5472V44.5296L297.458 37.5796C296.803 38.3766 296.231 39.2387 295.752 40.1524L301.388 45.7839V50.0647L294.551 43.2326C294.229 44.4332 294.05 45.6981 294.036 46.9988L304.417 57.5472ZM294.09 51.3297V55.6069L313.499 74.9991V70.7219L294.09 51.3297ZM328.643 55.8427H325.61V59.6661H322.585C322.567 60.3317 322.683 60.9942 322.926 61.6143C323.168 62.2344 323.533 62.7997 323.997 63.2768C324.462 63.7539 325.018 64.1331 325.632 64.392C326.246 64.6509 326.905 64.7843 327.572 64.7843C328.238 64.7843 328.897 64.6509 329.511 64.392C330.125 64.1331 330.681 63.7539 331.146 63.2768C331.61 62.7997 331.975 62.2344 332.217 61.6143C332.46 60.9942 332.576 60.3317 332.558 59.6661L328.643 55.8427ZM353.301 59.7341L351.03 64.047H336.881L346.082 46.3878H337.936L340.206 42.0677H354.36L345.155 59.7341H353.301ZM361.519 50.8651H368.774V55.1888H361.519V59.7341H368.774V64.0506H356.176V42.0677H368.774V46.3878H361.519V50.8651ZM378.911 42.0677C381.714 42.0677 383.33 42.3643 384.518 43.1218C386.033 44.0473 386.956 45.9232 386.956 48.035C386.956 49.5823 386.463 50.8687 385.473 51.8585C384.847 52.5159 384.353 52.8125 383.166 53.1449C384.518 53.4379 385.111 53.7345 385.805 54.3956C386.791 55.3174 387.289 56.6039 387.289 58.2189C387.289 60.2593 386.463 62.0709 385.046 63.0286C383.956 63.7539 382.637 64.0506 380.399 64.0506H371.394V42.0677H378.911ZM376.737 51.1653H378.052C380.495 51.1653 381.518 50.4077 381.518 48.5925C381.518 46.8131 380.495 46.0554 377.988 46.0554H376.737V51.1653ZM376.737 60.2271H378.681C380.924 60.2271 381.878 59.4696 381.878 57.6901C381.878 56.636 381.485 55.8749 380.692 55.4461C380.098 55.1174 379.573 55.053 377.957 55.053H376.737V60.2271ZM394.705 64.0506H389.359V42.0677H396.482C399.382 42.0677 401.492 42.5966 402.944 43.7149C404.463 44.9048 405.318 46.8809 405.318 49.2857C405.318 52.6446 403.902 54.8529 401.062 55.9749L405.911 64.0506H399.514L394.702 55.5462L394.705 64.0506ZM396.421 52.5446C398.596 52.5446 399.914 51.4297 399.914 49.5144C399.914 47.7063 398.628 46.4521 396.751 46.4521H394.705V52.5446H396.421ZM421.391 64.0506H427.184L419.968 42.0712H413.174L405.922 64.047H411.554L412.913 59.7269H420.039L421.391 64.0506ZM414.265 55.4032L416.474 48.3638L418.681 55.4032H414.265Z" fill="white"/>
<path d="M543.387 42.4375C543.366 42.4377 543.346 42.4379 543.326 42.4383C539.85 42.4382 537.355 44.6205 537.355 47.7737V47.8264C537.355 51.2158 539.455 52.3738 543.176 53.3186C546.413 54.106 547.126 54.8184 547.126 56.1306V56.1833C547.126 57.5781 545.928 58.4967 544.028 58.4967C541.857 58.4967 540.186 57.6308 538.514 56.1123L536.681 58.4066L536.674 58.4146C538.669 60.3164 541.268 61.3637 543.96 61.3503C547.635 61.3503 550.209 59.2993 550.209 55.8574V55.8047C550.209 52.7565 548.288 51.3621 544.588 50.4172C541.237 49.5774 540.439 48.9434 540.439 47.5261V47.4734C540.439 46.2624 541.508 45.2919 543.29 45.2919C544.887 45.2919 546.456 45.9368 548.028 47.1666L549.664 44.7442C547.895 43.2211 545.672 42.4042 543.387 42.4375ZM603.885 42.7011L603.893 42.7158V61.0875H606.891V48.0022H606.912L612.401 56.652H612.423L617.962 47.9502H617.983V61.0728H621.032V42.7011H617.777L612.469 51.3766H612.448L607.14 42.7011L603.885 42.7011ZM567.359 46.9074C565.366 46.9074 563.965 47.8749 562.896 49.3371H562.874C562.161 47.8749 560.846 46.9111 558.953 46.9111C556.946 46.9111 555.798 48.0512 554.95 49.2734H554.928V47.2223H551.931L552.006 47.234V61.0765H555.004V53.2812C555.004 51.1254 556.151 49.8131 557.827 49.8131C559.502 49.8131 560.5 51.0316 560.5 53.1875V61.0765H563.498V53.2549C563.498 51.0203 564.621 49.8131 566.321 49.8131C568.022 49.8131 568.995 50.9792 568.995 53.1875V61.0611H571.993V52.2165C571.993 48.8271 570.232 46.9074 567.359 46.9074ZM594.247 46.9154C590.365 46.9154 587.666 50.1135 587.666 54.0728C587.666 58.2496 590.482 61.3613 594.247 61.3613C596.279 61.3613 597.69 60.3789 598.311 59.2391H598.332V60.7389C598.332 63.7383 596.999 65.189 594.332 65.189C593.63 65.2147 592.937 65.0127 592.347 64.6104C591.757 64.208 591.299 63.6247 591.035 62.9394V62.9211H591.017L590.992 62.9438L588.173 64.5783V64.5966C589.16 66.7374 591.42 68.2902 594.4 68.2902C599.704 68.2902 601.408 64.6008 601.408 60.6378V47.2149H598.421V49.0369H598.4C597.776 47.8371 596.221 46.9154 594.247 46.9154ZM643.595 46.9154C639.713 46.9154 637.015 50.1135 637.015 54.0728C637.015 58.2496 639.831 61.3613 643.595 61.3613C645.627 61.3613 647.039 60.3789 647.659 59.2391H647.681V60.7389C647.681 63.7383 646.347 65.189 643.681 65.189C642.978 65.2147 642.285 65.0127 641.696 64.6104C641.106 64.208 640.648 63.6247 640.384 62.9394V62.9211H640.366L640.341 62.9438L637.522 64.5783V64.5966C638.509 66.7374 640.768 68.2903 643.749 68.2903C649.053 68.2903 650.757 64.6009 650.757 60.6378V47.2149H647.77V49.0369H647.748C647.124 47.8371 645.57 46.9154 643.595 46.9154ZM583.022 47.2186V54.8601C583.022 57.0159 581.995 58.2528 580.195 58.2528H579.874C578.074 58.2528 577.047 57.0159 577.047 54.8601V47.234H574.046V55.2277C574.046 56.8592 574.661 58.4241 575.756 59.5795C576.851 60.7349 578.337 61.3864 579.889 61.3913H580.223C581.775 61.3864 583.261 60.7349 584.356 59.5795C585.451 58.4241 586.066 56.8592 586.066 55.2277V47.234L583.022 47.2186ZM632.31 47.2186V54.8601C632.31 57.0159 631.283 58.2528 629.483 58.2528H629.133C627.333 58.2528 626.307 57.0159 626.307 54.8601V47.234H623.305V55.2277C623.305 56.8565 623.918 58.4192 625.011 59.5741C626.103 60.7291 627.585 61.3824 629.133 61.3913H629.49C631.041 61.3864 632.527 60.7349 633.622 59.5795C634.718 58.4241 635.333 56.8592 635.333 55.2277V47.234L632.31 47.2186ZM594.556 50.1024C596.742 50.1024 598.353 51.6018 598.353 54.1475C598.353 56.6933 596.806 58.2718 594.556 58.2718C592.25 58.2718 590.704 56.7721 590.704 54.1475C590.704 51.6167 592.311 50.1024 594.556 50.1024ZM643.906 50.1024C646.091 50.1024 647.702 51.6018 647.702 54.1475C647.702 56.6933 646.155 58.2718 643.906 58.2718C641.6 58.2718 640.052 56.7721 640.052 54.1475C640.052 51.6167 641.66 50.1024 643.906 50.1024Z" fill="white"/>
<path d="M662.624 41.5311C665.031 41.4936 666.189 39.9976 666.032 38.6366C665.904 37.5118 664.86 36.4582 662.874 36.4395C662.185 36.4257 661.515 36.6772 660.99 37.1468C660.464 37.6163 660.12 38.2715 660.022 38.989C659.862 40.2751 660.618 41.5648 662.639 41.5311" fill="white"/>
<path d="M674.406 41.2201C676.716 41.0814 677.725 39.8629 677.739 38.6406C677.739 37.2646 676.506 35.8923 674.431 36.0686C672.767 36.211 671.79 37.4258 671.644 38.6406C671.48 39.9904 672.339 41.3401 674.406 41.2164" fill="white"/>
<path d="M665.494 60.1233C657.48 60.1233 658.575 50.1838 659.922 50.1276C669.237 49.7339 671.611 49.404 674.94 49.329C678.366 49.2502 671.825 60.0971 665.494 60.1233ZM675.706 46.307C670.028 46.9069 669.75 46.9669 659.309 47.2219C654.903 47.2406 655.794 63.1678 665.201 63.1678C674.156 63.179 685.003 45.4934 675.706 46.307Z" fill="white"/>
<mask id="mask0_2766_32129" style="mask-type:luminance" maskUnits="userSpaceOnUse" x="60" y="169" width="96" height="37">
<path d="M155.16 169.989H60.8989V205.801H155.16V169.989Z" fill="white"/>
</mask>
<g mask="url(#mask0_2766_32129)">
<path d="M134.949 186.643C134.949 186.918 134.943 187.193 134.943 187.467V205.011H128.343V175.029C128.423 175.029 128.502 175.02 128.583 175.02C130.341 175.02 132.109 175.02 133.872 175.02C134.021 175.007 134.165 175.075 134.253 175.196C138.892 180.99 143.533 186.781 148.178 192.572C148.225 192.629 148.274 192.683 148.367 192.789V175.035H154.967V205.028H154.744C153.164 205.028 151.581 205.028 150 205.028C149.861 205.039 149.727 204.976 149.646 204.862C146.146 200.495 142.643 196.129 139.141 191.765C137.764 190.049 136.385 188.334 135.001 186.621L134.951 186.575L134.949 186.643Z" fill="white"/>
<path d="M109.338 205.784C105.744 205.679 102.01 204.18 98.9799 201.087C95.9237 197.964 94.3911 194.176 94.454 189.785C94.5154 185.53 96.0848 181.881 99.0674 178.878C101.754 176.176 105.014 174.64 108.805 174.356C113.699 173.992 117.913 175.573 121.338 179.109C124.284 182.145 125.74 185.845 125.733 190.077C125.72 198.688 118.809 205.742 109.338 205.784ZM119.099 190.751C119.099 187.515 118.213 185.384 116.482 183.627C114.753 181.87 112.597 180.972 110.127 180.952C107.659 180.934 105.502 181.822 103.754 183.582C101.708 185.642 100.806 188.164 101.119 191.063C101.32 193.069 102.211 194.941 103.638 196.357C105.657 198.394 108.106 199.336 110.966 199.075C115.261 198.681 119.168 194.95 119.099 190.751Z" fill="white"/>
<path d="M96.9046 205.03H96.6347C94.3978 205.03 92.1624 205.03 89.9271 205.03C89.7829 205.051 89.6434 204.964 89.6018 204.822C87.8437 200.558 86.0793 196.295 84.312 192.035C83.8594 190.949 83.3945 189.863 82.9388 188.773C82.517 187.766 82.0997 186.761 81.6839 185.754C80.8217 183.653 79.9579 181.55 79.0972 179.447C79.0681 179.381 79.0312 179.318 78.9761 179.213C77.092 183.776 75.2234 188.286 73.3394 192.833H73.64C75.9859 192.833 78.3301 192.833 80.6698 192.833C80.8247 192.81 80.9705 192.907 81.0119 193.059C81.8342 194.962 82.6627 196.862 83.4957 198.762C83.528 198.836 83.5556 198.913 83.6 199.025H83.284C79.2138 199.025 75.1405 199.024 71.0642 199.019C70.8248 199.019 70.7389 199.107 70.6576 199.302C69.9013 201.144 69.1372 202.981 68.3809 204.819C68.3256 204.953 68.2781 205.034 68.1078 205.034C65.8065 205.027 63.5037 205.027 61.2023 205.034C61.1778 205.034 61.1533 205.034 61.0996 205.025C61.1179 204.955 61.1425 204.885 61.1686 204.816C63.5312 199.34 65.8939 193.865 68.2582 188.389C70.8632 182.352 73.4668 176.311 76.0687 170.266C76.1531 170.071 76.2467 170 76.4646 170.002C78.1522 170.013 79.8428 170.013 81.5351 170.002C81.756 170.002 81.845 170.079 81.9294 170.271C84.3058 175.794 86.6869 181.318 89.071 186.838C91.6454 192.807 94.2214 198.779 96.7958 204.753C96.8249 204.835 96.8587 204.918 96.9046 205.03Z" fill="white"/>
<path d="M134.948 186.643L134.954 186.575L135.005 186.621L134.948 186.643Z" fill="#F8BEC4"/>
</g>
<g clip-path="url(#clip0_2766_32129)">
<mask id="mask1_2766_32129" style="mask-type:luminance" maskUnits="userSpaceOnUse" x="247" y="137" width="215" height="104">
<path d="M462 137H247V241H462V137Z" fill="white"/>
</mask>
<g mask="url(#mask1_2766_32129)">
<mask id="mask2_2766_32129" style="mask-type:luminance" maskUnits="userSpaceOnUse" x="246" y="164" width="212" height="49">
<path d="M457.234 164.592H246.47V212.347H457.234V164.592Z" fill="white"/>
</mask>
<g mask="url(#mask2_2766_32129)">
<path d="M270.832 189.227C270.259 189.404 269.702 189.589 269.152 189.797C268.367 185.141 268.826 180.362 270.484 175.939C272.141 171.515 274.94 167.602 278.598 164.592V167.57C275.824 170.236 273.712 173.507 272.43 177.124C271.148 180.742 270.731 184.606 271.212 188.412L270.832 189.227ZM295.919 210.123C290.217 210.123 284.691 208.168 280.271 204.589C279.69 204.12 279.132 203.619 278.598 203.104C275.554 200.171 273.31 196.516 272.079 192.483L270.747 195.415C272.157 198.863 274.266 201.986 276.941 204.589C277.483 205.112 278.041 205.62 278.621 206.128C283.479 210.165 289.61 212.377 295.942 212.378C299.171 212.383 302.375 211.804 305.396 210.669L302.794 209.13C300.562 209.773 298.25 210.1 295.926 210.1" fill="white"/>
<path d="M276.918 204.589C277.459 205.112 278.017 205.62 278.598 206.128C273.739 210.164 267.609 212.376 261.277 212.378C258.037 212.386 254.823 211.807 251.792 210.669L254.402 209.13C258.245 210.236 262.3 210.401 266.221 209.61C270.142 208.82 273.812 207.097 276.918 204.589ZM288.415 185.348C288.407 181.385 287.523 177.472 285.827 173.886C284.131 170.299 281.663 167.127 278.598 164.592V167.57C281.003 169.877 282.914 172.645 284.216 175.705C285.517 178.766 286.182 182.057 286.17 185.379C286.172 186.277 286.123 187.173 286.023 188.065C285.777 190.302 285.22 192.493 284.366 194.576C283.061 197.789 281.097 200.696 278.598 203.111C279.132 203.627 279.689 204.127 280.27 204.597C282.45 202.465 284.255 199.986 285.613 197.262C286.781 194.918 287.598 192.416 288.036 189.835C288.284 188.363 288.411 186.873 288.415 185.379" fill="white"/>
<path d="M305.395 210.675L302.794 209.136C301.828 205.357 299.984 201.856 297.409 198.915C294.833 195.974 291.599 193.675 287.966 192.204L291.582 199.962C293.224 203.449 294.199 204.264 295.879 204.526C296.065 204.565 296.065 205.565 295.879 205.604H285.69C285.496 205.604 285.496 204.565 285.69 204.526C287.664 204.303 288.377 203.225 287.146 200.555L285.597 197.261C286.766 194.916 287.582 192.414 288.021 189.834C292.499 191.492 296.46 194.29 299.509 197.947C302.559 201.604 304.588 205.994 305.395 210.675ZM286.038 188.095C285.793 190.331 285.235 192.522 284.381 194.606L282.554 190.665C281.246 190.449 279.923 190.339 278.598 190.334C276.622 190.323 274.652 190.561 272.736 191.042L272.078 192.474L270.747 195.406L268.997 199.254C267.247 203.102 268.106 204.226 270.119 204.595C270.305 204.672 270.266 205.565 270.081 205.604H261.796C261.61 205.604 261.571 204.672 261.757 204.595C263.213 204.08 264.336 203.264 266.403 198.885L269.5 192.058C265.803 193.514 262.507 195.821 259.882 198.79C257.258 201.759 255.379 205.305 254.402 209.136L251.792 210.675C252.597 205.991 254.623 201.598 257.669 197.936C260.715 194.273 264.674 191.469 269.152 189.803C269.701 189.603 270.259 189.403 270.832 189.234L271.211 188.41L278.11 173.433C278.472 173.318 278.862 173.318 279.225 173.433L286.038 188.095ZM281.462 188.31L277.684 180.191L273.89 188.533C275.445 188.264 277.02 188.128 278.598 188.125C279.55 188.126 280.501 188.177 281.447 188.279" fill="white"/>
<path d="M329.696 196.046L322.945 177.575H320.157L313.777 193.93C312.608 196.893 311.749 197.993 309.689 198.501V199.355H317.145V198.501C314.381 198.093 313.971 197.27 315.109 194.245L316.193 191.428H323.161L324.81 196.192C325.376 197.732 324.81 198.363 321.891 198.501V199.355H333.087V198.501C330.765 198.124 330.3 197.647 329.696 196.046ZM316.533 190.405L319.631 182.085H319.925L322.79 190.397L316.533 190.405Z" fill="white"/>
<path d="M341.271 189.989C339.08 189.451 337.818 188.92 337.818 187.627C337.812 187.33 337.869 187.036 337.986 186.764C338.104 186.491 338.278 186.247 338.498 186.046C338.718 185.846 338.978 185.695 339.261 185.602C339.544 185.51 339.844 185.478 340.141 185.51C341.883 185.51 343.122 186.803 344.701 189.204H345.591V184.502H344.701L343.927 185.479C342.841 184.847 341.608 184.51 340.35 184.502C336.865 184.502 334.519 186.426 334.519 189.358C334.519 191.667 335.851 192.698 339.165 193.645C342.208 194.53 343.191 195.184 343.191 196.547C343.191 197.716 342.363 198.563 340.752 198.563C338.817 198.563 337.067 197.178 335.332 194.338H334.45V199.571H335.301L336.254 198.501C337.559 199.145 338.986 199.509 340.443 199.571C344.027 199.571 346.374 197.401 346.374 194.561C346.412 192.006 344.631 190.844 341.271 189.989Z" fill="white"/>
<path d="M357.478 197.965C354.334 197.965 352.94 195.256 352.94 191.854C352.94 187.721 354.302 185.42 356.402 185.42C356.819 185.397 357.236 185.48 357.613 185.662C357.989 185.844 358.313 186.118 358.554 186.459C358.241 186.67 357.984 186.952 357.803 187.281C357.621 187.61 357.52 187.977 357.508 188.352C357.508 189.522 358.283 190.469 359.885 190.469C360.192 190.477 360.497 190.42 360.78 190.301C361.063 190.182 361.317 190.005 361.525 189.78C361.732 189.555 361.889 189.289 361.984 188.999C362.08 188.708 362.111 188.401 362.076 188.098C362.076 186.52 360.49 184.473 356.269 184.473C351.802 184.473 348.473 187.467 348.473 192.292C348.473 196.802 351.291 199.635 355.921 199.635C357.221 199.672 358.506 199.359 359.641 198.727C360.776 198.095 361.716 197.17 362.363 196.048L361.759 195.571C361.285 196.277 360.651 196.862 359.906 197.278C359.163 197.694 358.33 197.929 357.478 197.965Z" fill="white"/>
<path d="M371.523 184.502C367.21 184.502 364.036 187.496 364.036 192.291C364.036 196.908 366.892 199.664 371.523 199.664C372.845 199.694 374.15 199.363 375.297 198.708C376.443 198.052 377.388 197.097 378.027 195.946L377.392 195.477C376.184 197.116 374.852 198.055 373.079 198.055C370.037 198.055 368.48 195.792 368.48 192.198V191.813H377.996C378.244 187.657 375.99 184.502 371.523 184.502ZM373.714 190.875H368.51C368.666 187.373 369.588 185.487 371.298 185.487C373.265 185.449 374.062 187.688 373.714 190.844V190.875Z" fill="white"/>
<path d="M395.03 197.43V189.202C395.03 186.239 393.791 184.631 391.159 184.631C390.084 184.698 389.035 184.987 388.079 185.48C387.124 185.973 386.282 186.659 385.607 187.494V184.723L379.266 185.008V185.778C381.077 185.778 381.457 186.378 381.457 187.317V197.43C381.457 198.246 381.077 198.53 379.266 198.561V199.331H387.388V198.561C386.149 198.561 385.677 198.246 385.677 197.43V188.348C386.031 187.913 386.473 187.557 386.974 187.302C387.476 187.048 388.026 186.901 388.588 186.87C390.137 186.87 390.81 187.817 390.81 189.733V197.43C390.81 198.246 390.338 198.53 389.068 198.561V199.331H397.214V198.561C395.402 198.53 395.03 198.246 395.03 197.43Z" fill="white"/>
<path d="M405.923 189.989C403.74 189.451 402.47 188.92 402.47 187.627C402.465 187.334 402.521 187.043 402.636 186.774C402.751 186.504 402.921 186.262 403.137 186.062C403.352 185.862 403.608 185.71 403.886 185.615C404.165 185.52 404.46 185.484 404.754 185.51C406.496 185.51 407.735 186.803 409.323 189.204H410.205V184.502H409.384L408.61 185.479C407.517 184.844 406.276 184.507 405.01 184.502C401.518 184.502 399.172 186.426 399.172 189.358C399.172 191.667 400.503 192.698 403.817 193.645C406.86 194.53 407.843 195.184 407.843 196.547C407.843 197.716 407.022 198.563 405.405 198.563C403.469 198.563 401.727 197.178 399.984 194.338H399.094V199.571H399.954L400.898 198.501C402.204 199.145 403.631 199.509 405.087 199.571C408.672 199.571 411.018 197.401 411.018 194.561C411.065 192.006 409.291 190.844 405.923 189.989Z" fill="white"/>
<path d="M419.435 197.433V184.726L412.931 185.011V185.78C414.743 185.78 415.215 186.381 415.215 187.32V197.433C415.215 198.248 414.743 198.533 412.931 198.564V199.334H421.626V198.564C419.806 198.533 419.435 198.248 419.435 197.433Z" fill="white"/>
<path d="M430.212 184.502C425.567 184.502 422.539 187.496 422.539 192.129C422.539 196.762 425.397 199.664 430.212 199.664C434.78 199.664 437.854 196.67 437.854 192.006C437.854 187.342 434.943 184.502 430.212 184.502ZM430.344 198.686C428.021 198.686 427.046 196.516 427.046 192.067C427.046 187.619 427.82 185.479 430.058 185.479C432.295 185.479 433.325 187.627 433.325 192.067C433.325 196.508 432.528 198.655 430.344 198.655V198.686Z" fill="white"/>
<path d="M455.042 197.43V189.202C455.042 186.239 453.803 184.631 451.171 184.631C450.096 184.698 449.048 184.987 448.091 185.48C447.136 185.973 446.294 186.659 445.619 187.494V184.723L439.278 185.008V185.778C441.082 185.778 441.461 186.378 441.461 187.317V197.43C441.461 198.246 441.082 198.53 439.278 198.561V199.331H447.392V198.561C446.154 198.561 445.682 198.246 445.682 197.43V188.348C446.038 187.913 446.48 187.557 446.983 187.302C447.486 187.048 448.037 186.901 448.601 186.87C450.187 186.87 450.815 187.817 450.815 189.733V197.43C450.815 198.246 450.343 198.53 449.073 198.561V199.331H457.226V198.561C455.421 198.53 455.042 198.246 455.042 197.43Z" fill="white"/>
<path d="M417.25 182.232C417.75 182.232 418.238 182.085 418.653 181.809C419.068 181.533 419.393 181.141 419.583 180.682C419.774 180.223 419.824 179.718 419.725 179.231C419.628 178.744 419.386 178.297 419.032 177.946C418.679 177.596 418.229 177.358 417.738 177.262C417.248 177.166 416.741 177.216 416.279 177.408C415.818 177.599 415.424 177.921 415.148 178.335C414.871 178.749 414.725 179.234 414.726 179.731C414.725 180.06 414.79 180.387 414.917 180.691C415.043 180.996 415.229 181.272 415.464 181.505C415.698 181.737 415.977 181.921 416.284 182.046C416.59 182.171 416.92 182.234 417.25 182.232Z" fill="white"/>
</g>
</g>
</g>
<path fill-rule="evenodd" clip-rule="evenodd" d="M564.033 186.355C564.033 184.432 562.562 183.343 560.642 183.343H557.252V193.726H560.642C562.53 193.726 564.033 192.637 564.033 190.714V186.355ZM553.798 196.898V180.138H560.674C565.056 180.138 567.55 182.637 567.55 186.323V190.714C567.55 194.43 565.056 196.899 560.674 196.899L553.798 196.898ZM578.265 183.086C580.184 183.086 581.656 184.143 581.656 186.099V190.938C581.656 192.861 580.152 193.951 578.265 193.951C576.346 193.951 574.874 192.861 574.874 190.938V186.099C574.874 184.175 576.378 183.086 578.265 183.086ZM571.421 190.937C571.421 194.622 573.915 197.122 578.297 197.122C582.647 197.122 585.141 194.655 585.173 190.937V186.097C585.173 182.381 582.679 179.88 578.297 179.88C573.915 179.88 571.421 182.379 571.421 186.097V190.937ZM598.477 187.509L595.534 196.898H591.761L588.434 180.138H591.92L594.031 191.482L597.422 180.138H599.564L602.954 191.482L605.065 180.138H608.551L605.193 196.898H601.451L598.477 187.509ZM628.923 180.138H625.436V191.995C625.436 193.085 624.86 193.919 623.518 193.919C622.399 193.919 621.727 193.277 621.63 192.091H618.112C618.112 195.425 620.128 197.122 623.517 197.122C626.906 197.122 628.921 195.423 628.921 192.091V180.139L628.923 180.138ZM643.411 186.099C643.411 184.143 641.94 183.086 640.022 183.086C638.135 183.086 636.632 184.175 636.632 186.099V190.938C636.632 192.861 638.103 193.951 640.022 193.951C641.908 193.951 643.411 192.861 643.411 190.938V186.099ZM640.022 197.122C635.64 197.122 633.144 194.623 633.144 190.937V186.097C633.144 182.381 635.64 179.88 640.022 179.88C644.403 179.88 646.898 182.379 646.898 186.097V190.937C646.898 194.654 644.402 197.122 640.022 197.122ZM661.386 196.898H664.871V180.138H661.386V190.937L654.638 180.138H651.151V196.898H654.638V186.099L661.386 196.898ZM672.962 186.835H679.742V190.04H672.962V193.725H680.541V196.898H669.476V180.138H680.541V183.343H672.962V186.835ZM687.802 191.609H684.22C684.379 194.942 686.97 197.121 690.967 197.153C694.901 197.153 697.044 195.294 697.044 192.283C697.044 189.463 695.541 187.892 692.726 187.188L689.752 186.45C688.759 186.194 687.928 185.778 687.928 184.784C687.928 183.598 688.951 183.085 690.422 183.085C691.573 183.085 692.853 183.598 693.172 184.719H696.754C696.338 181.867 694.1 179.912 690.455 179.912C687.256 179.912 684.409 181.418 684.409 184.784C684.409 187.251 685.784 189.046 688.567 189.75L691.638 190.518C692.916 190.807 693.525 191.351 693.525 192.281C693.525 193.435 692.47 193.948 690.935 193.948C689.207 193.948 687.992 193.019 687.8 191.609H687.802Z" fill="white"/>
<path d="M531.313 184.206C531.281 183.662 531.248 183.405 531.152 183.052C530.608 181.161 528.849 179.783 526.803 179.783H518.039V197.536H522.485V201.926H513.594V175.329H526.803C531.281 175.329 534.958 178.598 535.598 182.892C535.662 183.309 535.694 183.724 535.694 184.206H531.313Z" fill="white"/>
<path d="M535.726 188.628V193.018C535.726 197.856 531.707 201.822 526.899 201.925V201.927H526.707C526.771 201.927 526.835 201.926 526.899 201.925V197.505H526.643C529.138 197.505 531.28 195.453 531.28 192.954V188.628H535.726Z" fill="white"/>
<mask id="mask3_2766_32129" style="mask-type:luminance" maskUnits="userSpaceOnUse" x="58" y="303" width="92" height="43">
<path d="M149.785 303.775H58.7808V345.163H149.785V303.775Z" fill="white"/>
</mask>
<g mask="url(#mask3_2766_32129)">
<mask id="mask4_2766_32129" style="mask-type:luminance" maskUnits="userSpaceOnUse" x="58" y="303" width="92" height="43">
<path d="M58.7798 345.167H149.785V303.779H58.7798V345.167Z" fill="white"/>
</mask>
<g mask="url(#mask4_2766_32129)">
<path d="M138.303 341.561V340.593H139.012C139.484 340.593 139.612 340.739 139.612 341.022C139.612 341.312 139.484 341.545 138.928 341.561H138.303ZM138.801 342.152C139.004 342.17 139.2 342.152 139.349 342.307C139.518 342.486 139.518 342.787 139.561 343.113C139.587 343.335 139.646 343.575 139.69 343.789H140.442C140.314 343.447 140.271 343.052 140.219 342.693C140.159 342.282 140.101 342.051 139.579 341.947V341.929C140.084 341.826 140.348 341.485 140.348 341.047C140.348 340.191 139.628 340.003 138.938 340.003H137.713V343.789H138.303V342.152H138.801ZM138.988 345.167C140.768 345.167 142.195 343.73 142.195 341.938C142.195 340.164 140.768 338.725 138.988 338.725C137.201 338.725 135.765 340.164 135.765 341.938C135.765 343.73 137.201 345.167 138.988 345.167ZM138.988 344.604C137.517 344.604 136.33 343.411 136.33 341.938C136.33 340.483 137.517 339.291 138.988 339.291C140.451 339.291 141.632 340.483 141.632 341.938C141.632 343.411 140.451 344.604 138.988 344.604Z" fill="white"/>
<path d="M133.552 312.65H128.388V317.819H133.552C134.778 317.819 135.764 318.82 135.764 320.041C135.764 321.27 134.778 322.258 133.552 322.258H128.388V327.432H133.552C137.628 327.432 140.929 324.121 140.929 320.041C140.929 315.96 137.628 312.65 133.552 312.65ZM104.122 340.003C110.304 340.003 115.631 336.375 118.12 331.125H124.703V340.003H128.388V331.125H133.552C139.666 331.125 144.62 326.162 144.62 320.041C144.62 313.918 139.666 308.953 133.552 308.953H124.703V322.258H119.451C118.38 314.739 111.925 308.953 104.122 308.953H85.961L67.896 340.003H72.2055L77.3687 331.125H95.9332V340.003H104.122ZM149.784 320.041C149.784 329.02 142.516 336.299 133.552 336.299V345.167H119.541V338.249C115.751 342.495 110.252 345.167 104.122 345.167H90.769V336.299H80.3328L75.1697 345.167H58.7798L82.8713 303.779H104.122C110.252 303.779 115.751 306.459 119.541 310.705V303.779H133.552C142.516 303.779 149.784 311.064 149.784 320.041ZM90.769 312.65V322.258H82.5319L79.5233 327.432H95.9332V312.65H90.769ZM115.927 324.473C115.927 331.005 110.639 336.299 104.122 336.299H99.6207V331.125H104.122C107.791 331.125 110.765 328.151 110.765 324.473C110.765 320.803 107.791 317.819 104.122 317.819H99.6207V312.65H104.122C110.639 312.65 115.927 317.944 115.927 324.473Z" fill="white"/>
<path d="M133.552 312.65H128.388V317.819H133.552C134.778 317.819 135.764 318.82 135.764 320.041C135.764 321.27 134.778 322.258 133.552 322.258H128.388V327.432H133.552C137.628 327.432 140.929 324.121 140.929 320.041C140.929 315.96 137.628 312.65 133.552 312.65ZM104.122 340.003C110.304 340.003 115.631 336.375 118.12 331.125H124.703V340.003H128.388V331.125H133.552C139.666 331.125 144.62 326.162 144.62 320.041C144.62 313.918 139.666 308.953 133.552 308.953H124.703V322.258H119.451C118.38 314.739 111.925 308.953 104.122 308.953H85.961L67.896 340.003H72.2055L77.3687 331.125H95.9332V340.003H104.122ZM149.784 320.041C149.784 329.02 142.516 336.299 133.552 336.299V345.167H119.541V338.249C115.751 342.495 110.252 345.167 104.122 345.167H90.769V336.299H80.3328L75.1697 345.167H58.7798L82.8713 303.779H104.122C110.252 303.779 115.751 306.459 119.541 310.705V303.779H133.552C142.516 303.779 149.784 311.064 149.784 320.041ZM90.769 312.65V322.258H82.5319L79.5233 327.432H95.9332V312.65H90.769ZM115.927 324.473C115.927 331.005 110.639 336.299 104.122 336.299H99.6207V331.125H104.122C107.791 331.125 110.765 328.151 110.765 324.473C110.765 320.803 107.791 317.819 104.122 317.819H99.6207V312.65H104.122C110.639 312.65 115.927 317.944 115.927 324.473Z" fill="white"/>
<path d="M133.552 312.65H128.388V317.819H133.552C134.778 317.819 135.764 318.82 135.764 320.041C135.764 321.27 134.778 322.258 133.552 322.258H128.388V327.432H133.552C137.628 327.432 140.929 324.121 140.929 320.041C140.929 315.96 137.628 312.65 133.552 312.65ZM104.122 340.003C110.304 340.003 115.631 336.375 118.12 331.125H124.703V340.003H128.388V331.125H133.552C139.666 331.125 144.62 326.162 144.62 320.041C144.62 313.918 139.666 308.953 133.552 308.953H124.703V322.258H119.451C118.38 314.739 111.925 308.953 104.122 308.953H85.961L67.896 340.003H72.2055L77.3687 331.125H95.9332V340.003H104.122ZM149.784 320.041C149.784 329.02 142.516 336.299 133.552 336.299V345.167H119.541V338.249C115.751 342.495 110.252 345.167 104.122 345.167H90.769V336.299H80.3328L75.1697 345.167H58.7798L82.8713 303.779H104.122C110.252 303.779 115.751 306.459 119.541 310.705V303.779H133.552C142.516 303.779 149.784 311.064 149.784 320.041ZM90.769 312.65V322.258H82.5319L79.5233 327.432H95.9332V312.65H90.769ZM115.927 324.473C115.927 331.005 110.639 336.299 104.122 336.299H99.6207V331.125H104.122C107.791 331.125 110.765 328.151 110.765 324.473C110.765 320.803 107.791 317.819 104.122 317.819H99.6207V312.65H104.122C110.639 312.65 115.927 317.944 115.927 324.473Z" fill="white"/>
</g>
</g>
<path d="M375.85 313.327C368.729 313.327 364.004 318.693 364.004 325.523C364.004 332.745 368.793 337.709 375.85 337.709C382.772 337.709 387.673 332.522 387.673 325.517C387.673 318.514 382.771 313.327 375.85 313.327ZM335.31 313.344C333.048 313.344 330.186 314.133 328.08 315.888C325.568 317.981 323.624 321.257 323.624 325.664C323.624 329.464 324.839 332.524 327.031 334.597C329.177 336.627 332.213 337.735 335.977 337.735C339.007 337.735 342.667 336.576 344.236 335.593C344.786 335.249 344.958 335.101 344.816 334.539L343.836 331.727C343.722 331.266 343.217 331.148 342.807 331.354C342.118 331.697 341.603 331.967 340.904 332.228C339.548 332.736 338.144 333.083 336.807 333.083C333.993 333.083 332.393 332.308 331.167 330.878C330.389 329.97 329.933 328.819 329.791 327.489H345.32C345.885 327.489 346.137 327.094 346.137 326.425V325.291C346.137 324.738 346.112 323.871 346.066 323.353C345.78 320.185 344.63 317.636 342.71 315.909C340.861 314.243 338.379 313.344 335.31 313.344ZM360.627 313.367C356.144 313.367 353.405 314.409 351.648 316.704C350.302 318.464 350.059 320.433 350.06 324.645V336.205C350.122 337.028 350.449 337.414 351.209 337.414H354.756C355.577 337.414 355.913 336.98 355.913 336.205V324.429C355.913 321.776 355.945 320.296 356.865 319.294C357.657 318.433 358.72 317.87 360.948 317.87C361.39 317.87 362.449 317.988 362.817 318.034C362.957 318.051 363.072 318.062 363.131 318.062C363.515 318.062 363.649 317.92 363.773 317.425L364.304 314.775C364.403 314.232 364.321 313.809 363.786 313.681C362.974 313.486 361.681 313.367 360.627 313.367ZM301.793 313.682C301.407 313.682 301.13 313.993 301.288 314.519C302.346 318.018 305.027 322.172 307.807 325.582C304.264 328.815 301.787 333.116 300.543 336.572C300.36 337.08 300.644 337.412 300.924 337.412H305.104C305.706 337.412 305.982 337.196 306.258 336.576C307.388 334.047 309.066 331.128 311.267 328.761C313.284 330.729 315.049 333.722 316.181 336.576C316.498 337.365 316.864 337.412 317.338 337.412H321.896C322.768 337.412 322.845 336.933 322.689 336.516C320.95 331.873 317.251 327.134 315.165 325.132C317.075 323.066 320.538 319.076 322.051 314.519C322.274 313.849 321.862 313.682 321.521 313.682H317.704C317.242 313.682 316.932 313.845 316.59 314.519C314.535 318.447 312.684 320.763 311.888 321.597C310.632 320.087 308.982 317.371 307.774 314.519C307.511 313.9 307.234 313.682 306.703 313.682H301.793ZM389.672 313.682C389.288 313.682 389.01 313.993 389.168 314.519C390.224 318.018 392.906 322.172 395.686 325.582C392.144 328.815 389.667 333.116 388.424 336.572C388.24 337.08 388.526 337.412 388.805 337.412H392.984C393.586 337.412 393.861 337.196 394.136 336.576C395.268 334.047 396.945 331.128 399.146 328.761C401.165 330.729 402.929 333.722 404.059 336.576C404.379 337.365 404.744 337.412 405.217 337.412H409.775C410.647 337.412 410.724 336.933 410.569 336.516C408.828 331.873 405.13 327.134 403.047 325.132C404.955 323.066 408.42 319.076 409.931 314.519C410.155 313.849 409.742 313.682 409.4 313.682H405.585C405.121 313.682 404.812 313.845 404.47 314.519C402.414 318.447 400.564 320.763 399.769 321.597C398.512 320.087 396.861 317.371 395.653 314.519C395.391 313.9 395.112 313.682 394.582 313.682H389.672ZM375.853 317.791C379.999 317.791 381.562 321.424 381.562 325.519C381.562 329.615 379.999 333.25 375.853 333.249C371.706 333.249 370.109 329.615 370.109 325.519C370.109 321.425 371.706 317.791 375.853 317.791ZM335.505 317.812C338.606 317.812 340.501 319.946 340.501 323.114V323.258H329.783C329.898 322.47 330.12 321.722 330.469 321.011C331.424 319.058 333.247 317.812 335.505 317.812Z" fill="white"/>
<path d="M614.645 322.79C613.545 321.905 611.571 321.364 609.813 321.364C605.291 321.364 602.681 324.779 602.681 328.91C602.681 332.881 604.849 335.872 609.252 335.872C611.648 335.872 613.545 335.242 614.645 334.313V322.79ZM599.356 349.894L600.983 344.783C602.556 345.444 604.73 346.224 607.467 346.224C611.121 346.224 614.645 344.648 614.645 339.962V339.266C613.077 340.107 611.185 340.723 608.378 340.723C600.93 340.723 596.844 335.838 596.844 328.908C596.844 322.204 601.689 316.51 609.592 316.51C614.079 316.51 617.57 317.888 620.385 319.719V338.228C620.385 341.307 620.045 343.023 619.365 344.684C617.592 349.031 613.352 351.531 607.162 351.531C604.739 351.531 601.63 350.958 599.356 349.894Z" fill="white"/>
<path d="M555.958 317.053H561.449L561.594 319.481C563.45 317.524 566.123 316.56 568.74 316.56C574.003 316.56 577.485 319.681 577.485 325.682V340.111H571.754V326.385C571.754 323.058 570.04 321.586 567.42 321.586C564.919 321.586 562.417 323.277 561.693 325.407V340.111H555.958" fill="white"/>
<path d="M582.192 317.056H587.626L587.768 320.016C589.497 317.83 591.78 316.672 594.74 316.672C595.742 316.672 597.015 316.892 598.021 317.341L596.208 322.561C595.391 322.241 594.106 322.071 593.179 322.071C590.79 322.071 588.67 323.631 587.927 325.694V340.114H582.192" fill="white"/>
<path d="M625.015 337.669C625.142 337.669 625.235 337.637 625.295 337.574C625.351 337.512 625.38 337.428 625.38 337.325C625.38 337.216 625.349 337.136 625.288 337.081C625.226 337.028 625.128 337 624.992 337H624.61V337.669H625.015ZM624.195 336.65H625.036C625.171 336.65 625.288 336.671 625.382 336.711C625.478 336.75 625.56 336.8 625.623 336.865C625.687 336.926 625.733 336.994 625.762 337.073C625.793 337.15 625.805 337.227 625.805 337.299C625.805 337.442 625.771 337.569 625.701 337.684C625.63 337.798 625.525 337.885 625.38 337.943L625.91 338.853H625.442L624.954 337.998H624.61V338.853H624.195V336.65ZM624.94 339.523C625.185 339.523 625.408 339.478 625.615 339.387C625.818 339.297 625.997 339.175 626.148 339.016C626.298 338.859 626.416 338.672 626.499 338.459C626.585 338.243 626.626 338.013 626.626 337.768C626.626 337.521 626.585 337.294 626.499 337.078C626.416 336.865 626.298 336.678 626.148 336.519C625.997 336.361 625.818 336.237 625.615 336.146C625.408 336.054 625.187 336.007 624.95 336.007C624.706 336.007 624.483 336.054 624.276 336.146C624.072 336.237 623.892 336.361 623.738 336.519C623.588 336.678 623.468 336.865 623.385 337.078C623.3 337.294 623.258 337.521 623.258 337.768C623.258 338.013 623.3 338.243 623.385 338.459C623.468 338.672 623.585 338.859 623.736 339.016C623.885 339.175 624.063 339.297 624.27 339.387C624.476 339.478 624.699 339.523 624.94 339.523ZM624.94 339.939C624.643 339.939 624.362 339.884 624.1 339.772C623.84 339.66 623.613 339.504 623.422 339.307C623.229 339.109 623.078 338.878 622.968 338.614C622.856 338.35 622.801 338.065 622.801 337.761C622.801 337.458 622.856 337.174 622.968 336.909C623.078 336.646 623.229 336.415 623.422 336.22C623.613 336.026 623.84 335.869 624.1 335.756C624.362 335.642 624.645 335.583 624.95 335.583C625.247 335.583 625.529 335.642 625.789 335.756C626.047 335.869 626.271 336.026 626.462 336.22C626.655 336.415 626.806 336.646 626.915 336.909C627.026 337.174 627.083 337.458 627.083 337.761C627.083 338.065 627.026 338.35 626.915 338.614C626.806 338.878 626.655 339.109 626.462 339.307C626.271 339.504 626.045 339.66 625.783 339.772C625.522 339.884 625.241 339.939 624.94 339.939Z" fill="white"/>
<path d="M642.113 299.522H638.237V305.771H642.113V299.522Z" fill="white"/>
<path d="M642.113 310.765H638.237V317.019H642.113V310.765Z" fill="white"/>
<path d="M637.69 306.304H631.511V310.232H637.69V306.304Z" fill="white"/>
<path d="M648.826 306.304H642.638V310.232H648.826V306.304Z" fill="white"/>
<path d="M630.991 299.522H627.114V305.771H630.991V299.522Z" fill="white"/>
<path d="M630.991 310.765H627.114V317.019H630.991V310.765Z" fill="white"/>
<path d="M626.568 306.304H620.388V310.232H626.568V306.304Z" fill="white"/>
<path d="M630.991 288.263H627.114V294.516H630.991V288.263Z" fill="white"/>
<path d="M626.568 295.054H620.388V298.977H626.568V295.054Z" fill="white"/>
<path d="M637.703 295.054H631.514V298.977H637.703V295.054Z" fill="white"/>
<defs>
<clipPath id="clip0_2766_32129">
<rect width="215" height="104" fill="white" transform="translate(247 137)"/>
</clipPath>
</defs>
</svg>
