<svg width="289" height="289" viewBox="0 0 289 289" fill="none" xmlns="http://www.w3.org/2000/svg">
<rect x="0.5" y="0.5" width="288" height="288" fill="#192222" stroke="#303838"/>
<path d="M138.739 157.328L136.008 162.734H119L130.074 140.527H120.292L123.024 135.09H140.002L128.958 157.328H138.739Z" fill="white"/>
<path d="M148.609 146.178H157.333V151.615H148.609V157.328H157.333V162.734H142.205V135.09H157.333V140.526H148.609V146.178Z" fill="white"/>
<path d="M169.52 135.09C172.898 135.09 174.837 135.459 176.246 136.411C178.068 137.578 179.184 139.943 179.184 142.585C179.184 144.52 178.596 146.148 177.392 147.376C176.628 148.206 176.041 148.574 174.631 149.004C176.246 149.373 176.981 149.741 177.803 150.571C178.978 151.738 179.595 153.335 179.595 155.362C179.595 157.942 178.596 160.215 176.893 161.413C175.571 162.335 174.014 162.703 171.312 162.703H160.502V135.09H169.52ZM166.906 146.547H168.492C171.429 146.547 172.663 145.595 172.663 143.322C172.663 141.08 171.429 140.127 168.433 140.127H166.935V146.547H166.906ZM166.906 157.942H169.255C171.958 157.942 173.103 156.99 173.103 154.748C173.103 153.427 172.633 152.475 171.664 151.922C170.959 151.523 170.313 151.431 168.374 151.431H166.906V157.942Z" fill="white"/>
<path d="M188.499 162.734H182.066V135.09H190.614C194.11 135.09 196.636 135.766 198.369 137.148C200.19 138.653 201.218 141.11 201.218 144.151C201.218 148.39 199.515 151.154 196.107 152.567L201.923 162.703H194.227L188.441 152.014V162.734H188.499ZM190.556 148.267C193.17 148.267 194.756 146.854 194.756 144.458C194.756 142.185 193.199 140.619 190.967 140.619H188.499V148.298H190.556V148.267Z" fill="white"/>
<path d="M220.553 162.734H227.514L218.849 135.09H210.683L201.959 162.734H208.715L210.36 157.297H218.937L220.553 162.734ZM212.005 151.861L214.649 143.015L217.292 151.861H212.005Z" fill="white"/>
<path d="M101.842 150.266L98.1992 146.457V157.238H101.842V150.266Z" fill="white"/>
<path d="M87.2726 138.81H96.1436L92.5305 135.032L92.5012 135.001H87.8307C90.8856 134.694 93.2649 132.022 93.2649 128.766C93.2649 125.295 90.5918 122.5 87.2726 122.5V135.032L77.3148 124.65C76.786 124.927 76.2867 125.234 75.7873 125.572C75.2292 125.94 74.7298 126.339 74.2305 126.769L83.6596 136.598V158.161L90.9443 165.778V160.403L87.3019 156.594V138.81H87.2726Z" fill="white"/>
<path d="M90.9102 138.838L90.8809 157.206H94.5233L94.5526 142.647L90.9102 138.838Z" fill="white"/>
<path d="M103.394 146.459L99.752 142.65H94.5527L98.1951 146.459H103.394Z" fill="white"/>
<path d="M79.984 154.569V154.354V138.198L71.6417 129.475C70.8486 130.488 70.173 131.563 69.5856 132.7L76.3416 139.764V145.14L68.1169 136.539C67.735 138.044 67.5294 139.641 67.5 141.269C67.5294 141.3 79.6021 154.139 79.984 154.569Z" fill="white"/>
<path d="M67.584 146.736V152.142L90.907 176.5V171.124L67.584 146.736Z" fill="white"/>
<path d="M109.097 152.416H105.455V157.238H101.812C101.812 160.709 104.486 163.504 107.805 163.504C111.124 163.504 113.797 160.709 113.797 157.238L109.097 152.416Z" fill="white"/>
</svg>
