<svg width="289" height="289" viewBox="0 0 289 289" fill="none" xmlns="http://www.w3.org/2000/svg">
<rect x="0.5" y="0.5" width="288" height="288" fill="#192222" stroke="#303838"/>
<path d="M71.0917 148.561C69.9574 147.907 69.0753 146.993 68.4452 145.819C67.8151 144.646 67.5 143.29 67.5 141.754C67.5 140.217 67.9673 138.285 68.902 136.893C69.8367 135.502 71.1704 134.432 72.9032 133.684C74.636 132.937 76.6682 132.563 78.9996 132.563C81.331 132.563 80.9424 132.636 81.6146 132.781V132.127C81.6146 130.548 81.3205 129.37 80.7324 128.591C80.1443 127.812 79.2516 127.422 78.0544 127.422C76.1221 127.422 74.8828 128.43 74.3367 130.444C74.1687 131.026 73.8221 131.275 73.2971 131.192L69.0123 130.444C68.6972 130.382 68.4819 130.247 68.3664 130.039C68.2509 129.832 68.2351 129.551 68.3191 129.198C68.8652 127.08 70.0257 125.434 71.8005 124.26C73.5754 123.087 75.807 122.5 78.4955 122.5C81.184 122.5 84.1193 123.352 85.7891 125.055C87.4589 126.758 88.2938 129.24 88.2938 132.501V148.171C88.2938 148.4 88.215 148.592 88.0575 148.748C87.9 148.903 87.7057 148.981 87.4746 148.981H83.3789C82.8748 148.981 82.5597 148.711 82.4337 148.171L81.8036 145.243H81.5516C80.9845 146.614 80.139 147.673 79.0153 148.421C77.8916 149.168 76.5631 149.542 75.0299 149.542C73.4966 149.542 72.2259 149.215 71.0917 148.561ZM75.2347 143.638C75.8123 144.293 76.5947 144.62 77.5818 144.62C78.569 144.62 79.8818 144.043 80.5749 142.891C81.268 141.738 81.6146 140.082 81.6146 137.922V136.27C81.0265 136.166 80.4699 136.115 79.9448 136.115C78.2224 136.115 76.8625 136.556 75.8648 137.439C74.8671 138.321 74.3682 139.51 74.3682 141.006C74.3682 142.501 74.6571 142.984 75.2347 143.638ZM85.0172 152.564C85.3112 152.336 85.6946 152.305 86.1671 152.471C86.6397 152.637 87.2646 153.021 88.0417 153.623C93.3767 157.86 99.4993 160.976 106.41 162.97C113.32 164.964 120.482 165.961 127.896 165.961C135.311 165.961 139.632 165.363 145.146 164.169C150.659 162.975 155.338 161.381 159.182 159.387C159.98 158.972 160.599 158.712 161.041 158.608C161.482 158.504 161.86 158.608 162.175 158.92C162.406 159.19 162.521 159.46 162.521 159.73C162.521 160.457 161.818 161.433 160.41 162.658C156.399 166.085 151.4 168.749 145.414 170.649C139.428 172.55 133.126 173.5 126.51 173.5C119.894 173.5 116.287 172.892 111.34 171.677C106.394 170.462 101.757 168.588 97.4304 166.054C93.1037 163.52 89.3755 160.342 86.2459 156.521C85.4688 155.565 84.9752 154.766 84.7651 154.122C84.5341 153.395 84.6181 152.876 85.0172 152.564ZM92.2005 123.871C92.2005 123.642 92.2793 123.45 92.4368 123.294C92.5943 123.139 92.7886 123.061 93.0196 123.061H97.1784C97.4094 123.061 97.6037 123.133 97.7613 123.279C97.9188 123.424 98.0185 123.622 98.0606 123.871L98.6907 126.924H98.9427C99.5098 125.491 100.324 124.395 101.384 123.637C102.445 122.879 103.7 122.5 105.149 122.5C106.599 122.5 108.043 122.905 109.166 123.715C110.29 124.525 111.156 125.678 111.766 127.173H112.018C112.942 125.595 113.981 124.421 115.137 123.653C116.292 122.884 117.584 122.5 119.012 122.5C120.44 122.5 121.916 122.915 123.06 123.746C124.205 124.577 125.082 125.761 125.691 127.298C126.3 128.835 126.605 130.652 126.605 132.75V148.171C126.605 148.4 126.526 148.592 126.368 148.748C126.211 148.903 126.017 148.981 125.786 148.981H120.745C120.514 148.981 120.319 148.903 120.162 148.748C120.004 148.592 119.926 148.4 119.926 148.171V133.248C119.926 131.732 119.631 130.569 119.043 129.759C118.455 128.949 117.605 128.544 116.491 128.544C115.378 128.544 114.344 129.022 113.703 129.977C113.063 130.932 112.742 132.314 112.742 134.121V148.171C112.742 148.4 112.663 148.592 112.506 148.748C112.348 148.903 112.154 148.981 111.923 148.981H106.882C106.651 148.981 106.457 148.903 106.299 148.748C106.142 148.592 106.063 148.4 106.063 148.171V133.248C106.063 131.732 105.769 130.569 105.181 129.759C104.593 128.949 103.742 128.544 102.629 128.544C101.516 128.544 100.481 129.022 99.8406 129.977C99.2 130.932 98.8797 132.314 98.8797 134.121V148.171C98.8797 148.4 98.8009 148.592 98.6434 148.748C98.4859 148.903 98.2916 148.981 98.0606 148.981H93.0196C92.7886 148.981 92.5943 148.903 92.4368 148.748C92.2793 148.592 92.2005 148.4 92.2005 148.171V123.871ZM131.283 136.893C132.218 135.502 133.552 134.432 135.285 133.684C137.017 132.937 139.05 132.563 141.381 132.563C143.712 132.563 143.324 132.636 143.996 132.781V132.127C143.996 130.548 143.702 129.37 143.114 128.591C142.526 127.812 141.633 127.422 140.436 127.422C138.503 127.422 137.264 128.43 136.718 130.444C136.55 131.026 136.203 131.275 135.678 131.192L131.394 130.444C131.079 130.382 130.863 130.247 130.748 130.039C130.632 129.832 130.616 129.551 130.7 129.198C131.247 127.08 132.407 125.434 134.182 124.26C135.957 123.087 138.188 122.5 140.877 122.5C143.565 122.5 146.501 123.352 148.17 125.055C149.84 126.758 150.675 129.24 150.675 132.501V148.171C150.675 148.4 150.596 148.592 150.439 148.748C150.281 148.903 150.087 148.981 149.856 148.981H145.76C145.256 148.981 144.941 148.711 144.815 148.171L144.185 145.243H143.933C143.366 146.614 142.52 147.673 141.397 148.421C140.273 149.168 138.944 149.542 137.411 149.542C135.878 149.542 134.607 149.215 133.473 148.561C132.339 147.907 131.457 146.993 130.827 145.819C130.196 144.646 129.881 143.29 129.881 141.754C129.881 140.217 130.349 138.285 131.283 136.893ZM137.616 143.638C138.194 144.293 138.976 144.62 139.963 144.62C140.95 144.62 142.263 144.043 142.956 142.891C143.649 141.738 143.996 140.082 143.996 137.922V136.27C143.408 136.166 142.851 136.115 142.326 136.115C140.604 136.115 139.244 136.556 138.246 137.439C137.248 138.321 136.75 139.51 136.75 141.006C136.75 142.501 137.038 142.984 137.616 143.638ZM154.078 144.402C154.078 143.945 154.204 143.55 154.456 143.218L165.231 128.295H155.149C154.918 128.295 154.724 128.217 154.566 128.061C154.409 127.905 154.33 127.713 154.33 127.485V123.871C154.33 123.642 154.409 123.45 154.566 123.294C154.724 123.139 154.918 123.061 155.149 123.061H171.721C171.952 123.061 172.146 123.139 172.304 123.294C172.461 123.45 172.54 123.642 172.54 123.871V127.641C172.54 128.097 172.414 128.492 172.162 128.824L162.395 142.096C162.983 141.992 163.582 141.94 164.191 141.94C165.703 141.94 167.095 142.07 168.366 142.33C169.636 142.589 170.954 143.01 172.32 143.592C172.803 143.799 173.044 144.152 173.044 144.651V148.234C173.044 148.566 172.939 148.789 172.729 148.903C172.519 149.018 172.257 149.013 171.941 148.888C170.366 148.306 168.975 147.896 167.767 147.657C166.559 147.418 165.241 147.299 163.813 147.299C162.385 147.299 161.025 147.424 159.67 147.673C158.315 147.922 156.819 148.327 155.18 148.888C154.865 148.992 154.603 148.987 154.393 148.872C154.183 148.758 154.078 148.545 154.078 148.234V144.402ZM155.023 154.122C155.464 153.706 156.126 153.26 157.008 152.782C159.402 151.536 161.933 150.913 164.601 150.913C167.268 150.913 167.326 151.1 168.681 151.474C170.035 151.848 170.912 152.325 171.311 152.907C171.731 153.509 171.889 154.506 171.784 155.898C171.679 157.289 171.395 158.619 170.933 159.885C170.093 162.336 168.633 164.455 166.554 166.241C165.399 167.3 164.517 167.83 163.908 167.83C163.298 167.83 163.466 167.736 163.277 167.549C162.983 167.279 162.878 166.947 162.962 166.553C163.046 166.158 163.298 165.618 163.718 164.933C164.811 163.229 165.677 161.474 166.318 159.667C166.958 157.86 167.09 156.677 166.712 156.116C166.459 155.763 165.829 155.519 164.821 155.384C163.813 155.249 162.626 155.228 161.261 155.321C159.896 155.415 158.583 155.597 157.323 155.867C156.546 156.012 155.947 156.059 155.527 156.007C155.107 155.955 154.823 155.763 154.676 155.43C154.466 154.973 154.582 154.537 155.023 154.122ZM175.911 129.12C176.898 127.054 178.258 125.434 179.991 124.26C181.724 123.087 183.651 122.5 185.772 122.5C187.894 122.5 189.853 123.087 191.585 124.26C193.318 125.434 194.683 127.054 195.681 129.12C196.679 131.187 197.178 133.487 197.178 136.021C197.178 138.555 196.679 140.855 195.681 142.922C194.683 144.988 193.318 146.608 191.585 147.782C189.853 148.955 187.915 149.542 185.772 149.542C183.63 149.542 181.724 148.955 179.991 147.782C178.258 146.608 176.898 144.988 175.911 142.922C174.924 140.855 174.43 138.555 174.43 136.021C174.43 133.487 174.924 131.187 175.911 129.12ZM182.496 142.112C183.252 143.535 184.344 144.246 185.772 144.246C187.201 144.246 188.303 143.535 189.081 142.112C189.858 140.689 190.246 138.659 190.246 136.021C190.246 133.383 189.858 131.353 189.081 129.93C188.303 128.508 187.201 127.796 185.772 127.796C184.344 127.796 183.252 128.508 182.496 129.93C181.74 131.353 181.362 133.383 181.362 136.021C181.362 138.659 181.74 140.689 182.496 142.112ZM200.58 123.871C200.58 123.642 200.659 123.45 200.816 123.294C200.974 123.139 201.168 123.061 201.399 123.061H205.558C205.789 123.061 205.983 123.133 206.141 123.279C206.298 123.424 206.398 123.622 206.44 123.871L207.07 126.924H207.322C207.89 125.512 208.724 124.421 209.827 123.653C210.93 122.884 212.227 122.5 213.718 122.5C215.209 122.5 216.695 122.915 217.861 123.746C219.027 124.577 219.925 125.761 220.555 127.298C221.185 128.835 221.5 130.652 221.5 132.75V148.171C221.5 148.4 221.421 148.592 221.264 148.748C221.106 148.903 220.912 148.981 220.681 148.981H215.64C215.409 148.981 215.215 148.903 215.057 148.748C214.9 148.592 214.821 148.4 214.821 148.171V133.248C214.821 131.732 214.506 130.569 213.876 129.759C213.245 128.949 212.353 128.544 211.198 128.544C210.042 128.544 208.94 129.022 208.268 129.977C207.595 130.932 207.259 132.314 207.259 134.121V148.171C207.259 148.4 207.181 148.592 207.023 148.748C206.866 148.903 206.671 148.981 206.44 148.981H201.399C201.168 148.981 200.974 148.903 200.816 148.748C200.659 148.592 200.58 148.4 200.58 148.171V123.871Z" fill="white"/>
</svg>
