<svg width="300" height="300" viewBox="0 0 300 300" fill="none" xmlns="http://www.w3.org/2000/svg" xmlns:xlink="http://www.w3.org/1999/xlink">
<path d="M251.001 41.4719H53.9185V230.083H251.001V41.4719Z" stroke="white" stroke-width="1.5" stroke-linejoin="round"/>
<path d="M259.919 33H242.083V50.8355H259.919V33Z" fill="white" stroke="#192222" stroke-width="1.70364" stroke-linejoin="round"/>
<path d="M275.999 205H225.999V255H275.999V205Z" fill="white"/>
<path d="M275.999 205H225.999V255H275.999V205Z" fill="url(#pattern0_2766_22636)"/>
<path d="M275.999 205H225.999V255H275.999V205Z" stroke="#192222" stroke-width="1.5" stroke-linejoin="round"/>
<path d="M235.302 214.718L267.17 246.586" stroke="black" stroke-width="1.5"/>
<path d="M266.655 237.588L267.17 246.586L258.172 246.071" stroke="black" stroke-width="1.5" stroke-linejoin="round"/>
<path d="M235.342 223.24L234.827 214.242L243.825 214.757" stroke="black" stroke-width="1.5" stroke-linejoin="round"/>
<path d="M62.836 33H45.0005V50.8355H62.836V33Z" fill="white" stroke="#192222" stroke-width="1.70364" stroke-linejoin="round"/>
<path d="M62.836 221.165H45.0005V239H62.836V221.165Z" fill="white" stroke="#192222" stroke-width="1.70364" stroke-linejoin="round"/>
<ellipse cx="152.833" cy="136" rx="63.0618" ry="63.0613" fill="#FFEB36"/>
<path d="M154.199 103.149C153.975 102.377 152.722 102.377 152.498 103.149C147.88 119.021 135.448 131.453 119.576 136.07C118.804 136.295 118.804 137.548 119.576 137.772C135.448 142.39 147.88 154.822 152.498 170.694C152.722 171.466 153.975 171.466 154.199 170.694C158.817 154.822 171.249 142.39 187.121 137.772C187.893 137.548 187.893 136.295 187.121 136.07C171.249 131.453 158.817 119.021 154.199 103.149Z" fill="#192222"/>
<defs>
<pattern id="pattern0_2766_22636" patternUnits="userSpaceOnUse" patternTransform="matrix(1005.64 0 0 4.93684 225.999 205)" preserveAspectRatio="none" viewBox="0 -0.000244141 1005.64 4.93684" width="1" height="1">
<g id="pattern0_2766_22636_inner">
<circle cx="0.822807" cy="0.822807" r="0.822807" fill="#192222"/>
<circle cx="5.58807" cy="0.822807" r="0.822807" fill="#192222"/>
<circle cx="10.3533" cy="0.822807" r="0.822807" fill="#192222"/>
<circle cx="15.1186" cy="0.822807" r="0.822807" fill="#192222"/>
<circle cx="19.8839" cy="0.822807" r="0.822807" fill="#192222"/>
<circle cx="24.6492" cy="0.822807" r="0.822807" fill="#192222"/>
<circle cx="29.4144" cy="0.822807" r="0.822807" fill="#192222"/>
<circle cx="34.1797" cy="0.822807" r="0.822807" fill="#192222"/>
<circle cx="38.9449" cy="0.822807" r="0.822807" fill="#192222"/>
<circle cx="43.7102" cy="0.822807" r="0.822807" fill="#192222"/>
<circle cx="48.4755" cy="0.822807" r="0.822807" fill="#192222"/>
<circle cx="53.2407" cy="0.822807" r="0.822807" fill="#192222"/>
<circle cx="58.0059" cy="0.822563" r="0.822807" fill="#192222"/>
<circle cx="62.7713" cy="0.822807" r="0.822807" fill="#192222"/>
<circle cx="67.5364" cy="0.822563" r="0.822807" fill="#192222"/>
<circle cx="72.3016" cy="0.822563" r="0.822807" fill="#192222"/>
<circle cx="77.0669" cy="0.822563" r="0.822807" fill="#192222"/>
<circle cx="81.8321" cy="0.822563" r="0.822807" fill="#192222"/>
<circle cx="86.5976" cy="0.822807" r="0.822807" fill="#192222"/>
<circle cx="91.3628" cy="0.822807" r="0.822807" fill="#192222"/>
<circle cx="96.1282" cy="0.822807" r="0.822807" fill="#192222"/>
<circle cx="100.893" cy="0.822807" r="0.822807" fill="#192222"/>
<circle cx="105.659" cy="0.822807" r="0.822807" fill="#192222"/>
<circle cx="110.424" cy="0.822807" r="0.822807" fill="#192222"/>
<circle cx="115.189" cy="0.822807" r="0.822807" fill="#192222"/>
<circle cx="119.954" cy="0.822807" r="0.822807" fill="#192222"/>
<circle cx="124.72" cy="0.822807" r="0.822807" fill="#192222"/>
<circle cx="129.485" cy="0.822807" r="0.822807" fill="#192222"/>
<circle cx="134.25" cy="0.822807" r="0.822807" fill="#192222"/>
<circle cx="139.016" cy="0.822807" r="0.822807" fill="#192222"/>
<circle cx="143.781" cy="0.822807" r="0.822807" fill="#192222"/>
<circle cx="148.546" cy="0.822807" r="0.822807" fill="#192222"/>
<circle cx="153.311" cy="0.822807" r="0.822807" fill="#192222"/>
<circle cx="158.077" cy="0.822807" r="0.822807" fill="#192222"/>
<circle cx="162.842" cy="0.822807" r="0.822807" fill="#192222"/>
<circle cx="167.607" cy="0.822807" r="0.822807" fill="#192222"/>
<circle cx="172.372" cy="0.822807" r="0.822807" fill="#192222"/>
<circle cx="177.138" cy="0.822807" r="0.822807" fill="#192222"/>
<circle cx="181.903" cy="0.822563" r="0.822807" fill="#192222"/>
<circle cx="186.668" cy="0.822807" r="0.822807" fill="#192222"/>
<circle cx="191.433" cy="0.822563" r="0.822807" fill="#192222"/>
<circle cx="196.199" cy="0.822807" r="0.822807" fill="#192222"/>
<circle cx="200.964" cy="0.822807" r="0.822807" fill="#192222"/>
<circle cx="205.729" cy="0.822807" r="0.822807" fill="#192222"/>
<circle cx="210.495" cy="0.822807" r="0.822807" fill="#192222"/>
<circle cx="215.26" cy="0.822807" r="0.822807" fill="#192222"/>
<circle cx="220.025" cy="0.822807" r="0.822807" fill="#192222"/>
<circle cx="224.79" cy="0.822807" r="0.822807" fill="#192222"/>
<circle cx="229.556" cy="0.822807" r="0.822807" fill="#192222"/>
<circle cx="234.321" cy="0.822807" r="0.822807" fill="#192222"/>
<circle cx="239.086" cy="0.822807" r="0.822807" fill="#192222"/>
<circle cx="243.852" cy="0.822807" r="0.822807" fill="#192222"/>
<circle cx="248.617" cy="0.822807" r="0.822807" fill="#192222"/>
<circle cx="253.382" cy="0.822807" r="0.822807" fill="#192222"/>
<circle cx="258.147" cy="0.822807" r="0.822807" fill="#192222"/>
<circle cx="262.913" cy="0.822807" r="0.822807" fill="#192222"/>
<circle cx="267.678" cy="0.822807" r="0.822807" fill="#192222"/>
<circle cx="272.443" cy="0.822807" r="0.822807" fill="#192222"/>
<circle cx="277.208" cy="0.822807" r="0.822807" fill="#192222"/>
<circle cx="281.974" cy="0.822807" r="0.822807" fill="#192222"/>
<circle cx="286.739" cy="0.822807" r="0.822807" fill="#192222"/>
<circle cx="291.504" cy="0.822807" r="0.822807" fill="#192222"/>
<circle cx="296.269" cy="0.822807" r="0.822807" fill="#192222"/>
<circle cx="301.035" cy="0.822807" r="0.822807" fill="#192222"/>
<circle cx="305.8" cy="0.822807" r="0.822807" fill="#192222"/>
<circle cx="310.565" cy="0.822807" r="0.822807" fill="#192222"/>
<circle cx="315.331" cy="0.822807" r="0.822807" fill="#192222"/>
<circle cx="320.096" cy="0.822807" r="0.822807" fill="#192222"/>
<circle cx="324.861" cy="0.822807" r="0.822807" fill="#192222"/>
<circle cx="329.626" cy="0.822807" r="0.822807" fill="#192222"/>
<circle cx="334.392" cy="0.822807" r="0.822807" fill="#192222"/>
</g>
</pattern></defs>
</svg>
