<svg width="180" height="36" viewBox="0 0 180 36" fill="none" xmlns="http://www.w3.org/2000/svg">
<path d="M51.4438 27.5658V2.39844H55.9084V27.5658H51.4438Z" fill="white"/>
<path d="M70.5889 2.58864C70.5889 1.13613 71.825 0 73.341 0C74.8571 0 75.9732 1.13613 75.9732 2.58864C75.9732 4.04116 74.8171 5.21683 73.341 5.21683C71.865 5.21683 70.5889 4.04116 70.5889 2.58864ZM71.0651 7.96008H75.5297V27.5655H71.0651V7.96008Z" fill="white"/>
<path d="M100.725 27.5658V2.39844H105.19V27.5658H100.725Z" fill="white"/>
<path d="M179.999 7.52508C174.8 7.52508 173.502 9.53487 173.502 10.5164V7.95652H169.038V27.5619H173.502V15.2047C173.502 13.0691 175.254 11.3361 177.414 11.3361H179.999V7.52148V7.52508Z" fill="white"/>
<path d="M89.6389 7.48926C86.8067 7.48926 85.0835 9.17188 84.0182 10.5165V7.93868H79.252V35.2129H84.0182V25.1639C84.8799 26.6776 87.0431 28.0366 89.6389 28.0366C94.4961 28.0366 98.6479 24.3514 98.6479 17.7252C98.6479 11.099 94.4961 7.49285 89.6389 7.49285V7.48926ZM88.8463 24.5491H88.5555C84.8617 24.5491 83.1748 21.5614 83.1748 17.7252C83.1748 13.889 84.8617 10.9444 88.5555 10.9444H88.8463C92.5001 10.9444 94.2852 13.6876 94.2852 17.7252C94.2852 21.7627 92.5001 24.5491 88.8463 24.5491Z" fill="white"/>
<path d="M47.9757 7.95996V27.5653H43.213V25.1708C42.1478 26.4148 40.13 28.0363 37.636 28.0363C34.2476 28.0363 30.7393 26.3501 30.7393 21.2915V7.95996H34.9384V20.6263C34.9384 23.215 36.4544 24.4302 38.9266 24.4302H39.0066C41.5188 24.4302 43.5148 22.744 43.5148 20.1553V7.95996H47.9793H47.9757Z" fill="white"/>
<path d="M67.808 27.6449C67.768 27.6449 66.3719 28.0368 65.0558 28.0368C60.8712 28.0368 59.3516 25.4481 59.3516 21.4106V2.39844H63.8161V7.96042H67.8952V11.2933H63.8161V21.5652C63.8161 23.2118 64.296 24.1538 65.972 24.1538C67.0082 24.1538 67.688 23.9597 67.808 23.9597V27.6449Z" fill="white"/>
<path fill-rule="evenodd" clip-rule="evenodd" d="M166.435 18.7031V17.682C166.435 11.3686 162.726 7.48926 156.986 7.48926C151.245 7.48926 147.377 11.685 147.377 17.8043C147.377 23.9235 150.965 27.9971 157.026 28.0366C161.818 28.0726 164.871 25.6421 166.075 21.9785H161.432C160.727 23.5101 159.447 24.6246 157.306 24.6246H157.106C154.114 24.6246 152.001 22.3919 151.881 18.9009V18.7031H166.435ZM157.022 10.7826C159.894 10.7826 161.61 12.9793 161.887 15.6435H151.998C152.278 13.0548 153.914 10.7826 156.742 10.7826H157.022Z" fill="white"/>
<path d="M16.153 27.5481L23.6642 6.7203H23.7296V27.5481H27.9469V2.41309H21.3519L16.273 15.6799C15.375 18.2074 14.4625 20.2855 13.9716 22.4966C13.4845 20.2819 12.5719 18.2038 11.6703 15.6799L6.59499 2.41668H0V27.5481H4.21731L4.15186 6.7239H4.21731L11.7939 27.5481H16.153Z" fill="white"/>
<path d="M137.71 23.1248L131.882 7.9561L127.032 7.94531L135.59 28.1224L134.946 30.0099C134.441 31.4516 133.07 32.275 131.529 32.275H128.733V35.9997H131.769C135.088 35.9997 137.92 33.8246 139.545 29.6863L147.904 7.9525H142.905L137.71 23.1212V23.1248Z" fill="white"/>
<path fill-rule="evenodd" clip-rule="evenodd" d="M122.317 27.5655H126.759V7.96016H122.328V10.52C121.317 9.20774 119.394 7.51074 116.383 7.51074C111.533 7.51074 107.385 11.1133 107.385 17.7323C107.385 24.3513 111.53 28.0329 116.38 28.0329C118.972 28.0329 121.466 26.5013 122.313 25.1674V27.5691L122.317 27.5655ZM111.741 17.7323C111.741 13.6983 113.522 10.9587 117.172 10.9587H117.463C121.153 10.9587 123.018 13.6983 123.018 17.7323C123.018 21.7663 121.153 24.5455 117.463 24.5455H117.172C113.522 24.5455 111.741 21.7663 111.741 17.7323Z" fill="white"/>
</svg>
